M48
; DRILL file {KiCad (6.0.2)} date Thu Mar  3 16:36:32 2022
; FORMAT={-:-/ absolute / inch / decimal}
; #@! TF.CreationDate,2022-03-03T16:36:32-08:00
; #@! TF.GenerationSoftware,Kicad,Pcbnew,(6.0.2)
; #@! TF.FileFunction,Plated,1,2,PTH
FMAT,2
INCH
; #@! TA.AperFunction,Plated,PTH,ViaDrill
T1C0.0157
; #@! TA.AperFunction,Plated,PTH,ComponentDrill
T2C0.0315
; #@! TA.AperFunction,Plated,PTH,ComponentDrill
T3C0.0335
; #@! TA.AperFunction,Plated,PTH,ComponentDrill
T4C0.0472
; #@! TA.AperFunction,Plated,PTH,ComponentDrill
T5C0.0866
%
G90
G05
T1
X4.75Y-5.85
X5.2Y-5.6
X5.3Y-4.85
X5.4Y-4.6715
X5.4Y-5.65
X5.45Y-3.8
X5.45Y-4.7
X5.45Y-4.8
X5.45Y-5.55
X5.45Y-5.65
X5.5Y-3.7
X5.7Y-5.3
X5.735Y-4.73
X5.75Y-4.3
X5.75Y-5.9
X6.005Y-4.76
T2
X3.456Y-4.95
X3.456Y-5.35
X3.532Y-4.7563
X3.6305Y-4.7563
X3.65Y-5.05
X3.65Y-5.45
X3.6598Y-4.0895
X3.6598Y-4.1879
X3.6614Y-4.3474
X3.6614Y-4.4458
X3.6634Y-3.8404
X3.6634Y-3.9388
X3.6654Y-3.59
X3.6654Y-3.6884
X3.8823Y-5.4501
X3.8823Y-5.5486
X4.1Y-3.7
X4.1Y-3.9
X4.1Y-4.1
X4.1Y-4.3
X4.2013Y-5.1476
X4.2997Y-5.1476
X4.5Y-3.7
X4.5Y-3.9
X4.5Y-4.1
X4.5Y-4.3
X4.9Y-3.6
X4.9Y-4.0
X4.9Y-4.2
X4.9Y-4.6
X4.9Y-4.85
X4.9Y-5.25
X4.9Y-5.4
X4.9Y-5.8
X5.1Y-3.6
X5.1Y-4.0
X5.1Y-4.2
X5.1Y-4.6
X5.1Y-4.85
X5.1Y-5.25
X5.1Y-5.4
X5.1Y-5.8
X5.3Y-3.6
X5.3Y-4.0
X5.3Y-5.4
X5.3Y-5.8
X5.5504Y-3.9998
X5.5504Y-4.0998
X5.5504Y-4.1998
X5.5504Y-4.2998
X5.5504Y-4.3998
X5.5504Y-4.4998
X5.5504Y-4.5998
X5.5504Y-5.0998
X5.5504Y-5.1998
X5.5504Y-5.2998
X5.5504Y-5.3998
X5.5504Y-5.4998
X5.5504Y-5.5998
X5.5504Y-5.6998
X5.6176Y-4.88
X5.635Y-3.744
X5.635Y-3.8424
X5.716Y-4.88
X5.8504Y-3.9998
X5.8504Y-4.0998
X5.8504Y-4.1998
X5.8504Y-4.2998
X5.8504Y-4.3998
X5.8504Y-4.4998
X5.8504Y-4.5998
X5.8504Y-5.0998
X5.8504Y-5.1998
X5.8504Y-5.2998
X5.8504Y-5.3998
X5.8504Y-5.4998
X5.8504Y-5.5998
X5.8504Y-5.6998
X5.859Y-4.88
X5.86Y-3.7426
X5.86Y-3.841
X5.9574Y-4.88
X6.1Y-3.7
X6.1Y-4.1
X6.1Y-5.45
X6.1Y-5.85
X6.2Y-4.3
X6.2Y-4.7
X6.2Y-4.9
X6.2Y-5.3
X6.3Y-3.7
X6.3Y-4.1
X6.3Y-5.45
X6.3Y-5.85
X6.4Y-4.3
X6.4Y-4.7
X6.4Y-4.9
X6.4Y-5.3
X6.6Y-4.3
X6.6Y-4.7
X6.6Y-4.9
X6.6Y-5.3
T3
X4.0451Y-5.35
X4.0451Y-5.45
X4.0451Y-5.55
X4.0451Y-5.65
X4.3549Y-5.35
X4.3549Y-5.45
X4.3549Y-5.55
X4.3549Y-5.65
T4
X2.9224Y-4.3433
X2.9224Y-4.4811
X2.9224Y-4.6189
X2.9224Y-4.7567
X2.9224Y-4.9493
X2.9224Y-5.0871
X2.9224Y-5.2249
X2.9224Y-5.3627
X3.2724Y-3.6933
X3.2724Y-3.8311
X3.2724Y-3.9689
X3.2724Y-4.1067
X3.4567Y-5.7795
X3.5945Y-5.7795
T5
X2.847Y-3.7
X2.847Y-5.8
X6.5675Y-3.7
X6.5675Y-5.8
T0
M30
