%TF.GenerationSoftware,KiCad,Pcbnew,(6.0.2)*%
%TF.CreationDate,2022-03-03T16:36:36-08:00*%
%TF.ProjectId,PAMonitorV3,50414d6f-6e69-4746-9f72-56332e6b6963,rev?*%
%TF.SameCoordinates,Original*%
%TF.FileFunction,Legend,Top*%
%TF.FilePolarity,Positive*%
%FSLAX46Y46*%
G04 Gerber Fmt 4.6, Leading zero omitted, Abs format (unit mm)*
G04 Created by KiCad (PCBNEW (6.0.2)) date 2022-03-03 16:36:36*
%MOMM*%
%LPD*%
G01*
G04 APERTURE LIST*
%ADD10C,0.200000*%
%ADD11C,0.300000*%
%ADD12C,0.150000*%
%ADD13C,0.120000*%
%ADD14C,0.250000*%
G04 APERTURE END LIST*
D10*
X79600000Y-117942857D02*
X79600000Y-116742857D01*
X80800000Y-116800000D02*
X80685714Y-116742857D01*
X80514285Y-116742857D01*
X80342857Y-116800000D01*
X80228571Y-116914285D01*
X80171428Y-117028571D01*
X80114285Y-117257142D01*
X80114285Y-117428571D01*
X80171428Y-117657142D01*
X80228571Y-117771428D01*
X80342857Y-117885714D01*
X80514285Y-117942857D01*
X80628571Y-117942857D01*
X80800000Y-117885714D01*
X80857142Y-117828571D01*
X80857142Y-117428571D01*
X80628571Y-117428571D01*
X79480952Y-114004761D02*
X79576190Y-114052380D01*
X79766666Y-114052380D01*
X79861904Y-114004761D01*
X79909523Y-113909523D01*
X79909523Y-113861904D01*
X79861904Y-113766666D01*
X79766666Y-113719047D01*
X79623809Y-113719047D01*
X79528571Y-113671428D01*
X79480952Y-113576190D01*
X79480952Y-113528571D01*
X79528571Y-113433333D01*
X79623809Y-113385714D01*
X79766666Y-113385714D01*
X79861904Y-113433333D01*
X80195238Y-113052380D02*
X80766666Y-113052380D01*
X80480952Y-114052380D02*
X80480952Y-113052380D01*
X81623809Y-113100000D02*
X81528571Y-113052380D01*
X81385714Y-113052380D01*
X81242857Y-113100000D01*
X81147619Y-113195238D01*
X81100000Y-113290476D01*
X81052380Y-113480952D01*
X81052380Y-113623809D01*
X81100000Y-113814285D01*
X81147619Y-113909523D01*
X81242857Y-114004761D01*
X81385714Y-114052380D01*
X81480952Y-114052380D01*
X81623809Y-114004761D01*
X81671428Y-113957142D01*
X81671428Y-113623809D01*
X81480952Y-113623809D01*
X82100000Y-114052380D02*
X82100000Y-113052380D01*
X82671428Y-114052380D01*
X82671428Y-113052380D01*
X83147619Y-114052380D02*
X83147619Y-113052380D01*
X83385714Y-113052380D01*
X83528571Y-113100000D01*
X83623809Y-113195238D01*
X83671428Y-113290476D01*
X83719047Y-113480952D01*
X83719047Y-113623809D01*
X83671428Y-113814285D01*
X83623809Y-113909523D01*
X83528571Y-114004761D01*
X83385714Y-114052380D01*
X83147619Y-114052380D01*
X75955714Y-104142857D02*
X76641428Y-104142857D01*
X76298571Y-105342857D02*
X76298571Y-104142857D01*
X77727142Y-105228571D02*
X77670000Y-105285714D01*
X77498571Y-105342857D01*
X77384285Y-105342857D01*
X77212857Y-105285714D01*
X77098571Y-105171428D01*
X77041428Y-105057142D01*
X76984285Y-104828571D01*
X76984285Y-104657142D01*
X77041428Y-104428571D01*
X77098571Y-104314285D01*
X77212857Y-104200000D01*
X77384285Y-104142857D01*
X77498571Y-104142857D01*
X77670000Y-104200000D01*
X77727142Y-104257142D01*
X78184285Y-104257142D02*
X78241428Y-104200000D01*
X78355714Y-104142857D01*
X78641428Y-104142857D01*
X78755714Y-104200000D01*
X78812857Y-104257142D01*
X78870000Y-104371428D01*
X78870000Y-104485714D01*
X78812857Y-104657142D01*
X78127142Y-105342857D01*
X78870000Y-105342857D01*
X79485714Y-109742857D02*
X80171428Y-109742857D01*
X79828571Y-110942857D02*
X79828571Y-109742857D01*
X81257142Y-110828571D02*
X81200000Y-110885714D01*
X81028571Y-110942857D01*
X80914285Y-110942857D01*
X80742857Y-110885714D01*
X80628571Y-110771428D01*
X80571428Y-110657142D01*
X80514285Y-110428571D01*
X80514285Y-110257142D01*
X80571428Y-110028571D01*
X80628571Y-109914285D01*
X80742857Y-109800000D01*
X80914285Y-109742857D01*
X81028571Y-109742857D01*
X81200000Y-109800000D01*
X81257142Y-109857142D01*
X81714285Y-109857142D02*
X81771428Y-109800000D01*
X81885714Y-109742857D01*
X82171428Y-109742857D01*
X82285714Y-109800000D01*
X82342857Y-109857142D01*
X82400000Y-109971428D01*
X82400000Y-110085714D01*
X82342857Y-110257142D01*
X81657142Y-110942857D01*
X82400000Y-110942857D01*
X77505000Y-101742857D02*
X77505000Y-100542857D01*
X78705000Y-100600000D02*
X78590714Y-100542857D01*
X78419285Y-100542857D01*
X78247857Y-100600000D01*
X78133571Y-100714285D01*
X78076428Y-100828571D01*
X78019285Y-101057142D01*
X78019285Y-101228571D01*
X78076428Y-101457142D01*
X78133571Y-101571428D01*
X78247857Y-101685714D01*
X78419285Y-101742857D01*
X78533571Y-101742857D01*
X78705000Y-101685714D01*
X78762142Y-101628571D01*
X78762142Y-101228571D01*
X78533571Y-101228571D01*
X80362857Y-89842857D02*
X80591428Y-89842857D01*
X80705714Y-89900000D01*
X80820000Y-90014285D01*
X80877142Y-90242857D01*
X80877142Y-90642857D01*
X80820000Y-90871428D01*
X80705714Y-90985714D01*
X80591428Y-91042857D01*
X80362857Y-91042857D01*
X80248571Y-90985714D01*
X80134285Y-90871428D01*
X80077142Y-90642857D01*
X80077142Y-90242857D01*
X80134285Y-90014285D01*
X80248571Y-89900000D01*
X80362857Y-89842857D01*
X81391428Y-89842857D02*
X81391428Y-90814285D01*
X81448571Y-90928571D01*
X81505714Y-90985714D01*
X81620000Y-91042857D01*
X81848571Y-91042857D01*
X81962857Y-90985714D01*
X82020000Y-90928571D01*
X82077142Y-90814285D01*
X82077142Y-89842857D01*
X82477142Y-89842857D02*
X83162857Y-89842857D01*
X82820000Y-91042857D02*
X82820000Y-89842857D01*
X83562857Y-91042857D02*
X83562857Y-89842857D01*
X84020000Y-89842857D01*
X84134285Y-89900000D01*
X84191428Y-89957142D01*
X84248571Y-90071428D01*
X84248571Y-90242857D01*
X84191428Y-90357142D01*
X84134285Y-90414285D01*
X84020000Y-90471428D01*
X83562857Y-90471428D01*
X84762857Y-89842857D02*
X84762857Y-90814285D01*
X84820000Y-90928571D01*
X84877142Y-90985714D01*
X84991428Y-91042857D01*
X85220000Y-91042857D01*
X85334285Y-90985714D01*
X85391428Y-90928571D01*
X85448571Y-90814285D01*
X85448571Y-89842857D01*
X85848571Y-89842857D02*
X86534285Y-89842857D01*
X86191428Y-91042857D02*
X86191428Y-89842857D01*
X86877142Y-90985714D02*
X87048571Y-91042857D01*
X87334285Y-91042857D01*
X87448571Y-90985714D01*
X87505714Y-90928571D01*
X87562857Y-90814285D01*
X87562857Y-90700000D01*
X87505714Y-90585714D01*
X87448571Y-90528571D01*
X87334285Y-90471428D01*
X87105714Y-90414285D01*
X86991428Y-90357142D01*
X86934285Y-90300000D01*
X86877142Y-90185714D01*
X86877142Y-90071428D01*
X86934285Y-89957142D01*
X86991428Y-89900000D01*
X87105714Y-89842857D01*
X87391428Y-89842857D01*
X87562857Y-89900000D01*
X94259523Y-145400000D02*
X94135714Y-145338095D01*
X93950000Y-145338095D01*
X93764285Y-145400000D01*
X93640476Y-145523809D01*
X93578571Y-145647619D01*
X93516666Y-145895238D01*
X93516666Y-146080952D01*
X93578571Y-146328571D01*
X93640476Y-146452380D01*
X93764285Y-146576190D01*
X93950000Y-146638095D01*
X94073809Y-146638095D01*
X94259523Y-146576190D01*
X94321428Y-146514285D01*
X94321428Y-146080952D01*
X94073809Y-146080952D01*
X94878571Y-146638095D02*
X94878571Y-145338095D01*
X95621428Y-146638095D01*
X95621428Y-145338095D01*
X96240476Y-146638095D02*
X96240476Y-145338095D01*
X96550000Y-145338095D01*
X96735714Y-145400000D01*
X96859523Y-145523809D01*
X96921428Y-145647619D01*
X96983333Y-145895238D01*
X96983333Y-146080952D01*
X96921428Y-146328571D01*
X96859523Y-146452380D01*
X96735714Y-146576190D01*
X96550000Y-146638095D01*
X96240476Y-146638095D01*
X104862857Y-121567380D02*
X104862857Y-120567380D01*
X105243809Y-120567380D01*
X105339047Y-120615000D01*
X105386666Y-120662619D01*
X105434285Y-120757857D01*
X105434285Y-120900714D01*
X105386666Y-120995952D01*
X105339047Y-121043571D01*
X105243809Y-121091190D01*
X104862857Y-121091190D01*
X105815238Y-121281666D02*
X106291428Y-121281666D01*
X105720000Y-121567380D02*
X106053333Y-120567380D01*
X106386666Y-121567380D01*
X106720000Y-121567380D02*
X106720000Y-120567380D01*
X107053333Y-121281666D01*
X107386666Y-120567380D01*
X107386666Y-121567380D01*
X108005714Y-121567380D02*
X107910476Y-121519761D01*
X107862857Y-121472142D01*
X107815238Y-121376904D01*
X107815238Y-121091190D01*
X107862857Y-120995952D01*
X107910476Y-120948333D01*
X108005714Y-120900714D01*
X108148571Y-120900714D01*
X108243809Y-120948333D01*
X108291428Y-120995952D01*
X108339047Y-121091190D01*
X108339047Y-121376904D01*
X108291428Y-121472142D01*
X108243809Y-121519761D01*
X108148571Y-121567380D01*
X108005714Y-121567380D01*
X108767619Y-120900714D02*
X108767619Y-121567380D01*
X108767619Y-120995952D02*
X108815238Y-120948333D01*
X108910476Y-120900714D01*
X109053333Y-120900714D01*
X109148571Y-120948333D01*
X109196190Y-121043571D01*
X109196190Y-121567380D01*
X109672380Y-121567380D02*
X109672380Y-120900714D01*
X109672380Y-120567380D02*
X109624761Y-120615000D01*
X109672380Y-120662619D01*
X109720000Y-120615000D01*
X109672380Y-120567380D01*
X109672380Y-120662619D01*
X110005714Y-120900714D02*
X110386666Y-120900714D01*
X110148571Y-120567380D02*
X110148571Y-121424523D01*
X110196190Y-121519761D01*
X110291428Y-121567380D01*
X110386666Y-121567380D01*
X110862857Y-121567380D02*
X110767619Y-121519761D01*
X110720000Y-121472142D01*
X110672380Y-121376904D01*
X110672380Y-121091190D01*
X110720000Y-120995952D01*
X110767619Y-120948333D01*
X110862857Y-120900714D01*
X111005714Y-120900714D01*
X111100952Y-120948333D01*
X111148571Y-120995952D01*
X111196190Y-121091190D01*
X111196190Y-121376904D01*
X111148571Y-121472142D01*
X111100952Y-121519761D01*
X111005714Y-121567380D01*
X110862857Y-121567380D01*
X111624761Y-121567380D02*
X111624761Y-120900714D01*
X111624761Y-121091190D02*
X111672380Y-120995952D01*
X111720000Y-120948333D01*
X111815238Y-120900714D01*
X111910476Y-120900714D01*
X112100952Y-120567380D02*
X112434285Y-121567380D01*
X112767619Y-120567380D01*
X113005714Y-120567380D02*
X113624761Y-120567380D01*
X113291428Y-120948333D01*
X113434285Y-120948333D01*
X113529523Y-120995952D01*
X113577142Y-121043571D01*
X113624761Y-121138809D01*
X113624761Y-121376904D01*
X113577142Y-121472142D01*
X113529523Y-121519761D01*
X113434285Y-121567380D01*
X113148571Y-121567380D01*
X113053333Y-121519761D01*
X113005714Y-121472142D01*
X99100952Y-123558333D02*
X99053333Y-123510714D01*
X98958095Y-123367857D01*
X98910476Y-123272619D01*
X98862857Y-123129761D01*
X98815238Y-122891666D01*
X98815238Y-122701190D01*
X98862857Y-122463095D01*
X98910476Y-122320238D01*
X98958095Y-122225000D01*
X99053333Y-122082142D01*
X99100952Y-122034523D01*
X99767619Y-122177380D02*
X99767619Y-122891666D01*
X99720000Y-123034523D01*
X99624761Y-123129761D01*
X99481904Y-123177380D01*
X99386666Y-123177380D01*
X100672380Y-123177380D02*
X100672380Y-122653571D01*
X100624761Y-122558333D01*
X100529523Y-122510714D01*
X100339047Y-122510714D01*
X100243809Y-122558333D01*
X100672380Y-123129761D02*
X100577142Y-123177380D01*
X100339047Y-123177380D01*
X100243809Y-123129761D01*
X100196190Y-123034523D01*
X100196190Y-122939285D01*
X100243809Y-122844047D01*
X100339047Y-122796428D01*
X100577142Y-122796428D01*
X100672380Y-122748809D01*
X101577142Y-123129761D02*
X101481904Y-123177380D01*
X101291428Y-123177380D01*
X101196190Y-123129761D01*
X101148571Y-123082142D01*
X101100952Y-122986904D01*
X101100952Y-122701190D01*
X101148571Y-122605952D01*
X101196190Y-122558333D01*
X101291428Y-122510714D01*
X101481904Y-122510714D01*
X101577142Y-122558333D01*
X102005714Y-123177380D02*
X102005714Y-122177380D01*
X102100952Y-122796428D02*
X102386666Y-123177380D01*
X102386666Y-122510714D02*
X102005714Y-122891666D01*
X102767619Y-123129761D02*
X102862857Y-123177380D01*
X103053333Y-123177380D01*
X103148571Y-123129761D01*
X103196190Y-123034523D01*
X103196190Y-122986904D01*
X103148571Y-122891666D01*
X103053333Y-122844047D01*
X102910476Y-122844047D01*
X102815238Y-122796428D01*
X102767619Y-122701190D01*
X102767619Y-122653571D01*
X102815238Y-122558333D01*
X102910476Y-122510714D01*
X103053333Y-122510714D01*
X103148571Y-122558333D01*
X103767619Y-123177380D02*
X103672380Y-123129761D01*
X103624761Y-123082142D01*
X103577142Y-122986904D01*
X103577142Y-122701190D01*
X103624761Y-122605952D01*
X103672380Y-122558333D01*
X103767619Y-122510714D01*
X103910476Y-122510714D01*
X104005714Y-122558333D01*
X104053333Y-122605952D01*
X104100952Y-122701190D01*
X104100952Y-122986904D01*
X104053333Y-123082142D01*
X104005714Y-123129761D01*
X103910476Y-123177380D01*
X103767619Y-123177380D01*
X104529523Y-122510714D02*
X104529523Y-123177380D01*
X104529523Y-122605952D02*
X104577142Y-122558333D01*
X104672380Y-122510714D01*
X104815238Y-122510714D01*
X104910476Y-122558333D01*
X104958095Y-122653571D01*
X104958095Y-123177380D01*
X106529523Y-122653571D02*
X106196190Y-122653571D01*
X106196190Y-123177380D02*
X106196190Y-122177380D01*
X106672380Y-122177380D01*
X107053333Y-123177380D02*
X107053333Y-122510714D01*
X107053333Y-122701190D02*
X107100952Y-122605952D01*
X107148571Y-122558333D01*
X107243809Y-122510714D01*
X107339047Y-122510714D01*
X108100952Y-123177380D02*
X108100952Y-122653571D01*
X108053333Y-122558333D01*
X107958095Y-122510714D01*
X107767619Y-122510714D01*
X107672380Y-122558333D01*
X108100952Y-123129761D02*
X108005714Y-123177380D01*
X107767619Y-123177380D01*
X107672380Y-123129761D01*
X107624761Y-123034523D01*
X107624761Y-122939285D01*
X107672380Y-122844047D01*
X107767619Y-122796428D01*
X108005714Y-122796428D01*
X108100952Y-122748809D01*
X108529523Y-123129761D02*
X108624761Y-123177380D01*
X108815238Y-123177380D01*
X108910476Y-123129761D01*
X108958095Y-123034523D01*
X108958095Y-122986904D01*
X108910476Y-122891666D01*
X108815238Y-122844047D01*
X108672380Y-122844047D01*
X108577142Y-122796428D01*
X108529523Y-122701190D01*
X108529523Y-122653571D01*
X108577142Y-122558333D01*
X108672380Y-122510714D01*
X108815238Y-122510714D01*
X108910476Y-122558333D01*
X109767619Y-123129761D02*
X109672380Y-123177380D01*
X109481904Y-123177380D01*
X109386666Y-123129761D01*
X109339047Y-123034523D01*
X109339047Y-122653571D01*
X109386666Y-122558333D01*
X109481904Y-122510714D01*
X109672380Y-122510714D01*
X109767619Y-122558333D01*
X109815238Y-122653571D01*
X109815238Y-122748809D01*
X109339047Y-122844047D01*
X110243809Y-123177380D02*
X110243809Y-122510714D01*
X110243809Y-122701190D02*
X110291428Y-122605952D01*
X110339047Y-122558333D01*
X110434285Y-122510714D01*
X110529523Y-122510714D01*
X111815238Y-122177380D02*
X111910476Y-122177380D01*
X112005714Y-122225000D01*
X112053333Y-122272619D01*
X112100952Y-122367857D01*
X112148571Y-122558333D01*
X112148571Y-122796428D01*
X112100952Y-122986904D01*
X112053333Y-123082142D01*
X112005714Y-123129761D01*
X111910476Y-123177380D01*
X111815238Y-123177380D01*
X111720000Y-123129761D01*
X111672380Y-123082142D01*
X111624761Y-122986904D01*
X111577142Y-122796428D01*
X111577142Y-122558333D01*
X111624761Y-122367857D01*
X111672380Y-122272619D01*
X111720000Y-122225000D01*
X111815238Y-122177380D01*
X112481904Y-122177380D02*
X113100952Y-122177380D01*
X112767619Y-122558333D01*
X112910476Y-122558333D01*
X113005714Y-122605952D01*
X113053333Y-122653571D01*
X113100952Y-122748809D01*
X113100952Y-122986904D01*
X113053333Y-123082142D01*
X113005714Y-123129761D01*
X112910476Y-123177380D01*
X112624761Y-123177380D01*
X112529523Y-123129761D01*
X112481904Y-123082142D01*
X114243809Y-122129761D02*
X113386666Y-123415476D01*
X114767619Y-122177380D02*
X114862857Y-122177380D01*
X114958095Y-122225000D01*
X115005714Y-122272619D01*
X115053333Y-122367857D01*
X115100952Y-122558333D01*
X115100952Y-122796428D01*
X115053333Y-122986904D01*
X115005714Y-123082142D01*
X114958095Y-123129761D01*
X114862857Y-123177380D01*
X114767619Y-123177380D01*
X114672380Y-123129761D01*
X114624761Y-123082142D01*
X114577142Y-122986904D01*
X114529523Y-122796428D01*
X114529523Y-122558333D01*
X114577142Y-122367857D01*
X114624761Y-122272619D01*
X114672380Y-122225000D01*
X114767619Y-122177380D01*
X116053333Y-123177380D02*
X115481904Y-123177380D01*
X115767619Y-123177380D02*
X115767619Y-122177380D01*
X115672380Y-122320238D01*
X115577142Y-122415476D01*
X115481904Y-122463095D01*
X117196190Y-122129761D02*
X116339047Y-123415476D01*
X117481904Y-122272619D02*
X117529523Y-122225000D01*
X117624761Y-122177380D01*
X117862857Y-122177380D01*
X117958095Y-122225000D01*
X118005714Y-122272619D01*
X118053333Y-122367857D01*
X118053333Y-122463095D01*
X118005714Y-122605952D01*
X117434285Y-123177380D01*
X118053333Y-123177380D01*
X118434285Y-122272619D02*
X118481904Y-122225000D01*
X118577142Y-122177380D01*
X118815238Y-122177380D01*
X118910476Y-122225000D01*
X118958095Y-122272619D01*
X119005714Y-122367857D01*
X119005714Y-122463095D01*
X118958095Y-122605952D01*
X118386666Y-123177380D01*
X119005714Y-123177380D01*
X119339047Y-123558333D02*
X119386666Y-123510714D01*
X119481904Y-123367857D01*
X119529523Y-123272619D01*
X119577142Y-123129761D01*
X119624761Y-122891666D01*
X119624761Y-122701190D01*
X119577142Y-122463095D01*
X119529523Y-122320238D01*
X119481904Y-122225000D01*
X119386666Y-122082142D01*
X119339047Y-122034523D01*
X76212857Y-94522857D02*
X75812857Y-93951428D01*
X75527142Y-94522857D02*
X75527142Y-93322857D01*
X75984285Y-93322857D01*
X76098571Y-93380000D01*
X76155714Y-93437142D01*
X76212857Y-93551428D01*
X76212857Y-93722857D01*
X76155714Y-93837142D01*
X76098571Y-93894285D01*
X75984285Y-93951428D01*
X75527142Y-93951428D01*
X76555714Y-93322857D02*
X77241428Y-93322857D01*
X76898571Y-94522857D02*
X76898571Y-93322857D01*
X77641428Y-94522857D02*
X77641428Y-93322857D01*
X77927142Y-93322857D01*
X78098571Y-93380000D01*
X78212857Y-93494285D01*
X78270000Y-93608571D01*
X78327142Y-93837142D01*
X78327142Y-94008571D01*
X78270000Y-94237142D01*
X78212857Y-94351428D01*
X78098571Y-94465714D01*
X77927142Y-94522857D01*
X77641428Y-94522857D01*
X79470000Y-94522857D02*
X78784285Y-94522857D01*
X79127142Y-94522857D02*
X79127142Y-93322857D01*
X79012857Y-93494285D01*
X78898571Y-93608571D01*
X78784285Y-93665714D01*
X83572380Y-145338095D02*
X82953333Y-145338095D01*
X82891428Y-145957142D01*
X82953333Y-145895238D01*
X83077142Y-145833333D01*
X83386666Y-145833333D01*
X83510476Y-145895238D01*
X83572380Y-145957142D01*
X83634285Y-146080952D01*
X83634285Y-146390476D01*
X83572380Y-146514285D01*
X83510476Y-146576190D01*
X83386666Y-146638095D01*
X83077142Y-146638095D01*
X82953333Y-146576190D01*
X82891428Y-146514285D01*
X84005714Y-145338095D02*
X84439047Y-146638095D01*
X84872380Y-145338095D01*
X80038095Y-128700000D02*
X79942857Y-128652380D01*
X79800000Y-128652380D01*
X79657142Y-128700000D01*
X79561904Y-128795238D01*
X79514285Y-128890476D01*
X79466666Y-129080952D01*
X79466666Y-129223809D01*
X79514285Y-129414285D01*
X79561904Y-129509523D01*
X79657142Y-129604761D01*
X79800000Y-129652380D01*
X79895238Y-129652380D01*
X80038095Y-129604761D01*
X80085714Y-129557142D01*
X80085714Y-129223809D01*
X79895238Y-129223809D01*
X80514285Y-129652380D02*
X80514285Y-128652380D01*
X81085714Y-129652380D01*
X81085714Y-128652380D01*
X81561904Y-129652380D02*
X81561904Y-128652380D01*
X81800000Y-128652380D01*
X81942857Y-128700000D01*
X82038095Y-128795238D01*
X82085714Y-128890476D01*
X82133333Y-129080952D01*
X82133333Y-129223809D01*
X82085714Y-129414285D01*
X82038095Y-129509523D01*
X81942857Y-129604761D01*
X81800000Y-129652380D01*
X81561904Y-129652380D01*
X70392857Y-126075714D02*
X69192857Y-126075714D01*
X70392857Y-125504285D02*
X69192857Y-125504285D01*
X70392857Y-124818571D01*
X69192857Y-124818571D01*
X70392857Y-124247142D02*
X69192857Y-124247142D01*
X69192857Y-123790000D01*
X69250000Y-123675714D01*
X69307142Y-123618571D01*
X69421428Y-123561428D01*
X69592857Y-123561428D01*
X69707142Y-123618571D01*
X69764285Y-123675714D01*
X69821428Y-123790000D01*
X69821428Y-124247142D01*
X69192857Y-123047142D02*
X70164285Y-123047142D01*
X70278571Y-122990000D01*
X70335714Y-122932857D01*
X70392857Y-122818571D01*
X70392857Y-122590000D01*
X70335714Y-122475714D01*
X70278571Y-122418571D01*
X70164285Y-122361428D01*
X69192857Y-122361428D01*
X69192857Y-121961428D02*
X69192857Y-121275714D01*
X70392857Y-121618571D02*
X69192857Y-121618571D01*
X70335714Y-120932857D02*
X70392857Y-120761428D01*
X70392857Y-120475714D01*
X70335714Y-120361428D01*
X70278571Y-120304285D01*
X70164285Y-120247142D01*
X70050000Y-120247142D01*
X69935714Y-120304285D01*
X69878571Y-120361428D01*
X69821428Y-120475714D01*
X69764285Y-120704285D01*
X69707142Y-120818571D01*
X69650000Y-120875714D01*
X69535714Y-120932857D01*
X69421428Y-120932857D01*
X69307142Y-120875714D01*
X69250000Y-120818571D01*
X69192857Y-120704285D01*
X69192857Y-120418571D01*
X69250000Y-120247142D01*
X80142857Y-126342857D02*
X79742857Y-125771428D01*
X79457142Y-126342857D02*
X79457142Y-125142857D01*
X79914285Y-125142857D01*
X80028571Y-125200000D01*
X80085714Y-125257142D01*
X80142857Y-125371428D01*
X80142857Y-125542857D01*
X80085714Y-125657142D01*
X80028571Y-125714285D01*
X79914285Y-125771428D01*
X79457142Y-125771428D01*
X80485714Y-125142857D02*
X81171428Y-125142857D01*
X80828571Y-126342857D02*
X80828571Y-125142857D01*
X81571428Y-126342857D02*
X81571428Y-125142857D01*
X81857142Y-125142857D01*
X82028571Y-125200000D01*
X82142857Y-125314285D01*
X82200000Y-125428571D01*
X82257142Y-125657142D01*
X82257142Y-125828571D01*
X82200000Y-126057142D01*
X82142857Y-126171428D01*
X82028571Y-126285714D01*
X81857142Y-126342857D01*
X81571428Y-126342857D01*
X82714285Y-125257142D02*
X82771428Y-125200000D01*
X82885714Y-125142857D01*
X83171428Y-125142857D01*
X83285714Y-125200000D01*
X83342857Y-125257142D01*
X83400000Y-125371428D01*
X83400000Y-125485714D01*
X83342857Y-125657142D01*
X82657142Y-126342857D01*
X83400000Y-126342857D01*
X79280952Y-121204761D02*
X79376190Y-121252380D01*
X79566666Y-121252380D01*
X79661904Y-121204761D01*
X79709523Y-121109523D01*
X79709523Y-121061904D01*
X79661904Y-120966666D01*
X79566666Y-120919047D01*
X79423809Y-120919047D01*
X79328571Y-120871428D01*
X79280952Y-120776190D01*
X79280952Y-120728571D01*
X79328571Y-120633333D01*
X79423809Y-120585714D01*
X79566666Y-120585714D01*
X79661904Y-120633333D01*
X79995238Y-120252380D02*
X80566666Y-120252380D01*
X80280952Y-121252380D02*
X80280952Y-120252380D01*
X81423809Y-120300000D02*
X81328571Y-120252380D01*
X81185714Y-120252380D01*
X81042857Y-120300000D01*
X80947619Y-120395238D01*
X80900000Y-120490476D01*
X80852380Y-120680952D01*
X80852380Y-120823809D01*
X80900000Y-121014285D01*
X80947619Y-121109523D01*
X81042857Y-121204761D01*
X81185714Y-121252380D01*
X81280952Y-121252380D01*
X81423809Y-121204761D01*
X81471428Y-121157142D01*
X81471428Y-120823809D01*
X81280952Y-120823809D01*
X81900000Y-121252380D02*
X81900000Y-120252380D01*
X82471428Y-121252380D01*
X82471428Y-120252380D01*
X82947619Y-121252380D02*
X82947619Y-120252380D01*
X83185714Y-120252380D01*
X83328571Y-120300000D01*
X83423809Y-120395238D01*
X83471428Y-120490476D01*
X83519047Y-120680952D01*
X83519047Y-120823809D01*
X83471428Y-121014285D01*
X83423809Y-121109523D01*
X83328571Y-121204761D01*
X83185714Y-121252380D01*
X82947619Y-121252380D01*
D11*
X104124761Y-117014761D02*
X105267619Y-117014761D01*
X104696190Y-119014761D02*
X104696190Y-117014761D01*
X107077142Y-119014761D02*
X106410476Y-118062380D01*
X105934285Y-119014761D02*
X105934285Y-117014761D01*
X106696190Y-117014761D01*
X106886666Y-117110000D01*
X106981904Y-117205238D01*
X107077142Y-117395714D01*
X107077142Y-117681428D01*
X106981904Y-117871904D01*
X106886666Y-117967142D01*
X106696190Y-118062380D01*
X105934285Y-118062380D01*
X107934285Y-119014761D02*
X107934285Y-117014761D01*
X108886666Y-117014761D02*
X108886666Y-118633809D01*
X108981904Y-118824285D01*
X109077142Y-118919523D01*
X109267619Y-119014761D01*
X109648571Y-119014761D01*
X109839047Y-118919523D01*
X109934285Y-118824285D01*
X110029523Y-118633809D01*
X110029523Y-117014761D01*
X110981904Y-119014761D02*
X110981904Y-117014761D01*
X111648571Y-118443333D01*
X112315238Y-117014761D01*
X112315238Y-119014761D01*
X113934285Y-117967142D02*
X113267619Y-117967142D01*
X113267619Y-119014761D02*
X113267619Y-117014761D01*
X114220000Y-117014761D01*
D10*
X75577857Y-98332857D02*
X75177857Y-97761428D01*
X74892142Y-98332857D02*
X74892142Y-97132857D01*
X75349285Y-97132857D01*
X75463571Y-97190000D01*
X75520714Y-97247142D01*
X75577857Y-97361428D01*
X75577857Y-97532857D01*
X75520714Y-97647142D01*
X75463571Y-97704285D01*
X75349285Y-97761428D01*
X74892142Y-97761428D01*
X75920714Y-97132857D02*
X76606428Y-97132857D01*
X76263571Y-98332857D02*
X76263571Y-97132857D01*
X77006428Y-98332857D02*
X77006428Y-97132857D01*
X77292142Y-97132857D01*
X77463571Y-97190000D01*
X77577857Y-97304285D01*
X77635000Y-97418571D01*
X77692142Y-97647142D01*
X77692142Y-97818571D01*
X77635000Y-98047142D01*
X77577857Y-98161428D01*
X77463571Y-98275714D01*
X77292142Y-98332857D01*
X77006428Y-98332857D01*
X78149285Y-97247142D02*
X78206428Y-97190000D01*
X78320714Y-97132857D01*
X78606428Y-97132857D01*
X78720714Y-97190000D01*
X78777857Y-97247142D01*
X78835000Y-97361428D01*
X78835000Y-97475714D01*
X78777857Y-97647142D01*
X78092142Y-98332857D01*
X78835000Y-98332857D01*
X80142857Y-133342857D02*
X79742857Y-132771428D01*
X79457142Y-133342857D02*
X79457142Y-132142857D01*
X79914285Y-132142857D01*
X80028571Y-132200000D01*
X80085714Y-132257142D01*
X80142857Y-132371428D01*
X80142857Y-132542857D01*
X80085714Y-132657142D01*
X80028571Y-132714285D01*
X79914285Y-132771428D01*
X79457142Y-132771428D01*
X80485714Y-132142857D02*
X81171428Y-132142857D01*
X80828571Y-133342857D02*
X80828571Y-132142857D01*
X81571428Y-133342857D02*
X81571428Y-132142857D01*
X81857142Y-132142857D01*
X82028571Y-132200000D01*
X82142857Y-132314285D01*
X82200000Y-132428571D01*
X82257142Y-132657142D01*
X82257142Y-132828571D01*
X82200000Y-133057142D01*
X82142857Y-133171428D01*
X82028571Y-133285714D01*
X81857142Y-133342857D01*
X81571428Y-133342857D01*
X83400000Y-133342857D02*
X82714285Y-133342857D01*
X83057142Y-133342857D02*
X83057142Y-132142857D01*
X82942857Y-132314285D01*
X82828571Y-132428571D01*
X82714285Y-132485714D01*
X80038095Y-135900000D02*
X79942857Y-135852380D01*
X79800000Y-135852380D01*
X79657142Y-135900000D01*
X79561904Y-135995238D01*
X79514285Y-136090476D01*
X79466666Y-136280952D01*
X79466666Y-136423809D01*
X79514285Y-136614285D01*
X79561904Y-136709523D01*
X79657142Y-136804761D01*
X79800000Y-136852380D01*
X79895238Y-136852380D01*
X80038095Y-136804761D01*
X80085714Y-136757142D01*
X80085714Y-136423809D01*
X79895238Y-136423809D01*
X80514285Y-136852380D02*
X80514285Y-135852380D01*
X81085714Y-136852380D01*
X81085714Y-135852380D01*
X81561904Y-136852380D02*
X81561904Y-135852380D01*
X81800000Y-135852380D01*
X81942857Y-135900000D01*
X82038095Y-135995238D01*
X82085714Y-136090476D01*
X82133333Y-136280952D01*
X82133333Y-136423809D01*
X82085714Y-136614285D01*
X82038095Y-136709523D01*
X81942857Y-136804761D01*
X81800000Y-136852380D01*
X81561904Y-136852380D01*
D12*
%TO.C,C11*%
X90320773Y-117167142D02*
X90273154Y-117214761D01*
X90130297Y-117262380D01*
X90035059Y-117262380D01*
X89892202Y-117214761D01*
X89796964Y-117119523D01*
X89749345Y-117024285D01*
X89701726Y-116833809D01*
X89701726Y-116690952D01*
X89749345Y-116500476D01*
X89796964Y-116405238D01*
X89892202Y-116310000D01*
X90035059Y-116262380D01*
X90130297Y-116262380D01*
X90273154Y-116310000D01*
X90320773Y-116357619D01*
X91273154Y-117262380D02*
X90701726Y-117262380D01*
X90987440Y-117262380D02*
X90987440Y-116262380D01*
X90892202Y-116405238D01*
X90796964Y-116500476D01*
X90701726Y-116548095D01*
X92225535Y-117262380D02*
X91654107Y-117262380D01*
X91939821Y-117262380D02*
X91939821Y-116262380D01*
X91844583Y-116405238D01*
X91749345Y-116500476D01*
X91654107Y-116548095D01*
%TO.C,C10*%
X152630142Y-96781857D02*
X152677761Y-96829476D01*
X152725380Y-96972333D01*
X152725380Y-97067571D01*
X152677761Y-97210428D01*
X152582523Y-97305666D01*
X152487285Y-97353285D01*
X152296809Y-97400904D01*
X152153952Y-97400904D01*
X151963476Y-97353285D01*
X151868238Y-97305666D01*
X151773000Y-97210428D01*
X151725380Y-97067571D01*
X151725380Y-96972333D01*
X151773000Y-96829476D01*
X151820619Y-96781857D01*
X152725380Y-95829476D02*
X152725380Y-96400904D01*
X152725380Y-96115190D02*
X151725380Y-96115190D01*
X151868238Y-96210428D01*
X151963476Y-96305666D01*
X152011095Y-96400904D01*
X151725380Y-95210428D02*
X151725380Y-95115190D01*
X151773000Y-95019952D01*
X151820619Y-94972333D01*
X151915857Y-94924714D01*
X152106333Y-94877095D01*
X152344428Y-94877095D01*
X152534904Y-94924714D01*
X152630142Y-94972333D01*
X152677761Y-95019952D01*
X152725380Y-95115190D01*
X152725380Y-95210428D01*
X152677761Y-95305666D01*
X152630142Y-95353285D01*
X152534904Y-95400904D01*
X152344428Y-95448523D01*
X152106333Y-95448523D01*
X151915857Y-95400904D01*
X151820619Y-95353285D01*
X151773000Y-95305666D01*
X151725380Y-95210428D01*
%TO.C,C9*%
X140057142Y-96559666D02*
X140104761Y-96607285D01*
X140152380Y-96750142D01*
X140152380Y-96845380D01*
X140104761Y-96988238D01*
X140009523Y-97083476D01*
X139914285Y-97131095D01*
X139723809Y-97178714D01*
X139580952Y-97178714D01*
X139390476Y-97131095D01*
X139295238Y-97083476D01*
X139200000Y-96988238D01*
X139152380Y-96845380D01*
X139152380Y-96750142D01*
X139200000Y-96607285D01*
X139247619Y-96559666D01*
X140152380Y-96083476D02*
X140152380Y-95893000D01*
X140104761Y-95797761D01*
X140057142Y-95750142D01*
X139914285Y-95654904D01*
X139723809Y-95607285D01*
X139342857Y-95607285D01*
X139247619Y-95654904D01*
X139200000Y-95702523D01*
X139152380Y-95797761D01*
X139152380Y-95988238D01*
X139200000Y-96083476D01*
X139247619Y-96131095D01*
X139342857Y-96178714D01*
X139580952Y-96178714D01*
X139676190Y-96131095D01*
X139723809Y-96083476D01*
X139771428Y-95988238D01*
X139771428Y-95797761D01*
X139723809Y-95702523D01*
X139676190Y-95654904D01*
X139580952Y-95607285D01*
%TO.C,C8*%
X149947333Y-120626142D02*
X149899714Y-120673761D01*
X149756857Y-120721380D01*
X149661619Y-120721380D01*
X149518761Y-120673761D01*
X149423523Y-120578523D01*
X149375904Y-120483285D01*
X149328285Y-120292809D01*
X149328285Y-120149952D01*
X149375904Y-119959476D01*
X149423523Y-119864238D01*
X149518761Y-119769000D01*
X149661619Y-119721380D01*
X149756857Y-119721380D01*
X149899714Y-119769000D01*
X149947333Y-119816619D01*
X150518761Y-120149952D02*
X150423523Y-120102333D01*
X150375904Y-120054714D01*
X150328285Y-119959476D01*
X150328285Y-119911857D01*
X150375904Y-119816619D01*
X150423523Y-119769000D01*
X150518761Y-119721380D01*
X150709238Y-119721380D01*
X150804476Y-119769000D01*
X150852095Y-119816619D01*
X150899714Y-119911857D01*
X150899714Y-119959476D01*
X150852095Y-120054714D01*
X150804476Y-120102333D01*
X150709238Y-120149952D01*
X150518761Y-120149952D01*
X150423523Y-120197571D01*
X150375904Y-120245190D01*
X150328285Y-120340428D01*
X150328285Y-120530904D01*
X150375904Y-120626142D01*
X150423523Y-120673761D01*
X150518761Y-120721380D01*
X150709238Y-120721380D01*
X150804476Y-120673761D01*
X150852095Y-120626142D01*
X150899714Y-120530904D01*
X150899714Y-120340428D01*
X150852095Y-120245190D01*
X150804476Y-120197571D01*
X150709238Y-120149952D01*
%TO.C,C7*%
X143769221Y-120559142D02*
X143721602Y-120606761D01*
X143578745Y-120654380D01*
X143483507Y-120654380D01*
X143340649Y-120606761D01*
X143245411Y-120511523D01*
X143197792Y-120416285D01*
X143150173Y-120225809D01*
X143150173Y-120082952D01*
X143197792Y-119892476D01*
X143245411Y-119797238D01*
X143340649Y-119702000D01*
X143483507Y-119654380D01*
X143578745Y-119654380D01*
X143721602Y-119702000D01*
X143769221Y-119749619D01*
X144102554Y-119654380D02*
X144769221Y-119654380D01*
X144340649Y-120654380D01*
%TO.C,C6*%
X89407142Y-98963035D02*
X89454761Y-99010654D01*
X89502380Y-99153511D01*
X89502380Y-99248749D01*
X89454761Y-99391607D01*
X89359523Y-99486845D01*
X89264285Y-99534464D01*
X89073809Y-99582083D01*
X88930952Y-99582083D01*
X88740476Y-99534464D01*
X88645238Y-99486845D01*
X88550000Y-99391607D01*
X88502380Y-99248749D01*
X88502380Y-99153511D01*
X88550000Y-99010654D01*
X88597619Y-98963035D01*
X88502380Y-98105892D02*
X88502380Y-98296369D01*
X88550000Y-98391607D01*
X88597619Y-98439226D01*
X88740476Y-98534464D01*
X88930952Y-98582083D01*
X89311904Y-98582083D01*
X89407142Y-98534464D01*
X89454761Y-98486845D01*
X89502380Y-98391607D01*
X89502380Y-98201130D01*
X89454761Y-98105892D01*
X89407142Y-98058273D01*
X89311904Y-98010654D01*
X89073809Y-98010654D01*
X88978571Y-98058273D01*
X88930952Y-98105892D01*
X88883333Y-98201130D01*
X88883333Y-98391607D01*
X88930952Y-98486845D01*
X88978571Y-98534464D01*
X89073809Y-98582083D01*
%TO.C,C5*%
X89457142Y-92603035D02*
X89504761Y-92650654D01*
X89552380Y-92793511D01*
X89552380Y-92888749D01*
X89504761Y-93031607D01*
X89409523Y-93126845D01*
X89314285Y-93174464D01*
X89123809Y-93222083D01*
X88980952Y-93222083D01*
X88790476Y-93174464D01*
X88695238Y-93126845D01*
X88600000Y-93031607D01*
X88552380Y-92888749D01*
X88552380Y-92793511D01*
X88600000Y-92650654D01*
X88647619Y-92603035D01*
X88552380Y-91698273D02*
X88552380Y-92174464D01*
X89028571Y-92222083D01*
X88980952Y-92174464D01*
X88933333Y-92079226D01*
X88933333Y-91841130D01*
X88980952Y-91745892D01*
X89028571Y-91698273D01*
X89123809Y-91650654D01*
X89361904Y-91650654D01*
X89457142Y-91698273D01*
X89504761Y-91745892D01*
X89552380Y-91841130D01*
X89552380Y-92079226D01*
X89504761Y-92174464D01*
X89457142Y-92222083D01*
%TO.C,C4*%
X97317142Y-105290297D02*
X97364761Y-105337916D01*
X97412380Y-105480773D01*
X97412380Y-105576011D01*
X97364761Y-105718869D01*
X97269523Y-105814107D01*
X97174285Y-105861726D01*
X96983809Y-105909345D01*
X96840952Y-105909345D01*
X96650476Y-105861726D01*
X96555238Y-105814107D01*
X96460000Y-105718869D01*
X96412380Y-105576011D01*
X96412380Y-105480773D01*
X96460000Y-105337916D01*
X96507619Y-105290297D01*
X96745714Y-104433154D02*
X97412380Y-104433154D01*
X96364761Y-104671250D02*
X97079047Y-104909345D01*
X97079047Y-104290297D01*
%TO.C,C3*%
X97357142Y-111840297D02*
X97404761Y-111887916D01*
X97452380Y-112030773D01*
X97452380Y-112126011D01*
X97404761Y-112268869D01*
X97309523Y-112364107D01*
X97214285Y-112411726D01*
X97023809Y-112459345D01*
X96880952Y-112459345D01*
X96690476Y-112411726D01*
X96595238Y-112364107D01*
X96500000Y-112268869D01*
X96452380Y-112126011D01*
X96452380Y-112030773D01*
X96500000Y-111887916D01*
X96547619Y-111840297D01*
X96452380Y-111506964D02*
X96452380Y-110887916D01*
X96833333Y-111221250D01*
X96833333Y-111078392D01*
X96880952Y-110983154D01*
X96928571Y-110935535D01*
X97023809Y-110887916D01*
X97261904Y-110887916D01*
X97357142Y-110935535D01*
X97404761Y-110983154D01*
X97452380Y-111078392D01*
X97452380Y-111364107D01*
X97404761Y-111459345D01*
X97357142Y-111506964D01*
%TO.C,C2*%
X107796964Y-127107142D02*
X107749345Y-127154761D01*
X107606488Y-127202380D01*
X107511250Y-127202380D01*
X107368392Y-127154761D01*
X107273154Y-127059523D01*
X107225535Y-126964285D01*
X107177916Y-126773809D01*
X107177916Y-126630952D01*
X107225535Y-126440476D01*
X107273154Y-126345238D01*
X107368392Y-126250000D01*
X107511250Y-126202380D01*
X107606488Y-126202380D01*
X107749345Y-126250000D01*
X107796964Y-126297619D01*
X108177916Y-126297619D02*
X108225535Y-126250000D01*
X108320773Y-126202380D01*
X108558869Y-126202380D01*
X108654107Y-126250000D01*
X108701726Y-126297619D01*
X108749345Y-126392857D01*
X108749345Y-126488095D01*
X108701726Y-126630952D01*
X108130297Y-127202380D01*
X108749345Y-127202380D01*
%TO.C,C1*%
X102967142Y-139850297D02*
X103014761Y-139897916D01*
X103062380Y-140040773D01*
X103062380Y-140136011D01*
X103014761Y-140278869D01*
X102919523Y-140374107D01*
X102824285Y-140421726D01*
X102633809Y-140469345D01*
X102490952Y-140469345D01*
X102300476Y-140421726D01*
X102205238Y-140374107D01*
X102110000Y-140278869D01*
X102062380Y-140136011D01*
X102062380Y-140040773D01*
X102110000Y-139897916D01*
X102157619Y-139850297D01*
X103062380Y-138897916D02*
X103062380Y-139469345D01*
X103062380Y-139183631D02*
X102062380Y-139183631D01*
X102205238Y-139278869D01*
X102300476Y-139374107D01*
X102348095Y-139469345D01*
%TO.C,R8*%
X124912380Y-142406666D02*
X124436190Y-142740000D01*
X124912380Y-142978095D02*
X123912380Y-142978095D01*
X123912380Y-142597142D01*
X123960000Y-142501904D01*
X124007619Y-142454285D01*
X124102857Y-142406666D01*
X124245714Y-142406666D01*
X124340952Y-142454285D01*
X124388571Y-142501904D01*
X124436190Y-142597142D01*
X124436190Y-142978095D01*
X124340952Y-141835238D02*
X124293333Y-141930476D01*
X124245714Y-141978095D01*
X124150476Y-142025714D01*
X124102857Y-142025714D01*
X124007619Y-141978095D01*
X123960000Y-141930476D01*
X123912380Y-141835238D01*
X123912380Y-141644761D01*
X123960000Y-141549523D01*
X124007619Y-141501904D01*
X124102857Y-141454285D01*
X124150476Y-141454285D01*
X124245714Y-141501904D01*
X124293333Y-141549523D01*
X124340952Y-141644761D01*
X124340952Y-141835238D01*
X124388571Y-141930476D01*
X124436190Y-141978095D01*
X124531428Y-142025714D01*
X124721904Y-142025714D01*
X124817142Y-141978095D01*
X124864761Y-141930476D01*
X124912380Y-141835238D01*
X124912380Y-141644761D01*
X124864761Y-141549523D01*
X124817142Y-141501904D01*
X124721904Y-141454285D01*
X124531428Y-141454285D01*
X124436190Y-141501904D01*
X124388571Y-141549523D01*
X124340952Y-141644761D01*
%TO.C,R24*%
X168092380Y-114942857D02*
X167616190Y-115276190D01*
X168092380Y-115514285D02*
X167092380Y-115514285D01*
X167092380Y-115133333D01*
X167140000Y-115038095D01*
X167187619Y-114990476D01*
X167282857Y-114942857D01*
X167425714Y-114942857D01*
X167520952Y-114990476D01*
X167568571Y-115038095D01*
X167616190Y-115133333D01*
X167616190Y-115514285D01*
X167187619Y-114561904D02*
X167140000Y-114514285D01*
X167092380Y-114419047D01*
X167092380Y-114180952D01*
X167140000Y-114085714D01*
X167187619Y-114038095D01*
X167282857Y-113990476D01*
X167378095Y-113990476D01*
X167520952Y-114038095D01*
X168092380Y-114609523D01*
X168092380Y-113990476D01*
X167425714Y-113133333D02*
X168092380Y-113133333D01*
X167044761Y-113371428D02*
X167759047Y-113609523D01*
X167759047Y-112990476D01*
%TO.C,R4*%
X124912380Y-128436666D02*
X124436190Y-128770000D01*
X124912380Y-129008095D02*
X123912380Y-129008095D01*
X123912380Y-128627142D01*
X123960000Y-128531904D01*
X124007619Y-128484285D01*
X124102857Y-128436666D01*
X124245714Y-128436666D01*
X124340952Y-128484285D01*
X124388571Y-128531904D01*
X124436190Y-128627142D01*
X124436190Y-129008095D01*
X124245714Y-127579523D02*
X124912380Y-127579523D01*
X123864761Y-127817619D02*
X124579047Y-128055714D01*
X124579047Y-127436666D01*
%TO.C,R14*%
X135072380Y-97162857D02*
X134596190Y-97496190D01*
X135072380Y-97734285D02*
X134072380Y-97734285D01*
X134072380Y-97353333D01*
X134120000Y-97258095D01*
X134167619Y-97210476D01*
X134262857Y-97162857D01*
X134405714Y-97162857D01*
X134500952Y-97210476D01*
X134548571Y-97258095D01*
X134596190Y-97353333D01*
X134596190Y-97734285D01*
X135072380Y-96210476D02*
X135072380Y-96781904D01*
X135072380Y-96496190D02*
X134072380Y-96496190D01*
X134215238Y-96591428D01*
X134310476Y-96686666D01*
X134358095Y-96781904D01*
X134405714Y-95353333D02*
X135072380Y-95353333D01*
X134024761Y-95591428D02*
X134739047Y-95829523D01*
X134739047Y-95210476D01*
%TO.C,R6*%
X157932380Y-129706666D02*
X157456190Y-130040000D01*
X157932380Y-130278095D02*
X156932380Y-130278095D01*
X156932380Y-129897142D01*
X156980000Y-129801904D01*
X157027619Y-129754285D01*
X157122857Y-129706666D01*
X157265714Y-129706666D01*
X157360952Y-129754285D01*
X157408571Y-129801904D01*
X157456190Y-129897142D01*
X157456190Y-130278095D01*
X156932380Y-128849523D02*
X156932380Y-129040000D01*
X156980000Y-129135238D01*
X157027619Y-129182857D01*
X157170476Y-129278095D01*
X157360952Y-129325714D01*
X157741904Y-129325714D01*
X157837142Y-129278095D01*
X157884761Y-129230476D01*
X157932380Y-129135238D01*
X157932380Y-128944761D01*
X157884761Y-128849523D01*
X157837142Y-128801904D01*
X157741904Y-128754285D01*
X157503809Y-128754285D01*
X157408571Y-128801904D01*
X157360952Y-128849523D01*
X157313333Y-128944761D01*
X157313333Y-129135238D01*
X157360952Y-129230476D01*
X157408571Y-129278095D01*
X157503809Y-129325714D01*
%TO.C,H2*%
X166052095Y-91532380D02*
X166052095Y-90532380D01*
X166052095Y-91008571D02*
X166623523Y-91008571D01*
X166623523Y-91532380D02*
X166623523Y-90532380D01*
X167052095Y-90627619D02*
X167099714Y-90580000D01*
X167194952Y-90532380D01*
X167433047Y-90532380D01*
X167528285Y-90580000D01*
X167575904Y-90627619D01*
X167623523Y-90722857D01*
X167623523Y-90818095D01*
X167575904Y-90960952D01*
X167004476Y-91532380D01*
X167623523Y-91532380D01*
%TO.C,R11*%
X155392380Y-99702857D02*
X154916190Y-100036190D01*
X155392380Y-100274285D02*
X154392380Y-100274285D01*
X154392380Y-99893333D01*
X154440000Y-99798095D01*
X154487619Y-99750476D01*
X154582857Y-99702857D01*
X154725714Y-99702857D01*
X154820952Y-99750476D01*
X154868571Y-99798095D01*
X154916190Y-99893333D01*
X154916190Y-100274285D01*
X155392380Y-98750476D02*
X155392380Y-99321904D01*
X155392380Y-99036190D02*
X154392380Y-99036190D01*
X154535238Y-99131428D01*
X154630476Y-99226666D01*
X154678095Y-99321904D01*
X155392380Y-97798095D02*
X155392380Y-98369523D01*
X155392380Y-98083809D02*
X154392380Y-98083809D01*
X154535238Y-98179047D01*
X154630476Y-98274285D01*
X154678095Y-98369523D01*
%TO.C,U1*%
X144028095Y-127087380D02*
X144028095Y-127896904D01*
X144075714Y-127992142D01*
X144123333Y-128039761D01*
X144218571Y-128087380D01*
X144409047Y-128087380D01*
X144504285Y-128039761D01*
X144551904Y-127992142D01*
X144599523Y-127896904D01*
X144599523Y-127087380D01*
X145599523Y-128087380D02*
X145028095Y-128087380D01*
X145313809Y-128087380D02*
X145313809Y-127087380D01*
X145218571Y-127230238D01*
X145123333Y-127325476D01*
X145028095Y-127373095D01*
%TO.C,H3*%
X71551895Y-144872380D02*
X71551895Y-143872380D01*
X71551895Y-144348571D02*
X72123323Y-144348571D01*
X72123323Y-144872380D02*
X72123323Y-143872380D01*
X72504276Y-143872380D02*
X73123323Y-143872380D01*
X72789990Y-144253333D01*
X72932847Y-144253333D01*
X73028085Y-144300952D01*
X73075704Y-144348571D01*
X73123323Y-144443809D01*
X73123323Y-144681904D01*
X73075704Y-144777142D01*
X73028085Y-144824761D01*
X72932847Y-144872380D01*
X72647133Y-144872380D01*
X72551895Y-144824761D01*
X72504276Y-144777142D01*
%TO.C,TP4*%
X78748095Y-141314380D02*
X79319523Y-141314380D01*
X79033809Y-142314380D02*
X79033809Y-141314380D01*
X79652857Y-142314380D02*
X79652857Y-141314380D01*
X80033809Y-141314380D01*
X80129047Y-141362000D01*
X80176666Y-141409619D01*
X80224285Y-141504857D01*
X80224285Y-141647714D01*
X80176666Y-141742952D01*
X80129047Y-141790571D01*
X80033809Y-141838190D01*
X79652857Y-141838190D01*
X81081428Y-141647714D02*
X81081428Y-142314380D01*
X80843333Y-141266761D02*
X80605238Y-141981047D01*
X81224285Y-141981047D01*
%TO.C,J1*%
X69522380Y-115903333D02*
X70236666Y-115903333D01*
X70379523Y-115950952D01*
X70474761Y-116046190D01*
X70522380Y-116189047D01*
X70522380Y-116284285D01*
X70522380Y-114903333D02*
X70522380Y-115474761D01*
X70522380Y-115189047D02*
X69522380Y-115189047D01*
X69665238Y-115284285D01*
X69760476Y-115379523D01*
X69808095Y-115474761D01*
%TO.C,R16*%
X124912380Y-112402857D02*
X124436190Y-112736190D01*
X124912380Y-112974285D02*
X123912380Y-112974285D01*
X123912380Y-112593333D01*
X123960000Y-112498095D01*
X124007619Y-112450476D01*
X124102857Y-112402857D01*
X124245714Y-112402857D01*
X124340952Y-112450476D01*
X124388571Y-112498095D01*
X124436190Y-112593333D01*
X124436190Y-112974285D01*
X124912380Y-111450476D02*
X124912380Y-112021904D01*
X124912380Y-111736190D02*
X123912380Y-111736190D01*
X124055238Y-111831428D01*
X124150476Y-111926666D01*
X124198095Y-112021904D01*
X123912380Y-110593333D02*
X123912380Y-110783809D01*
X123960000Y-110879047D01*
X124007619Y-110926666D01*
X124150476Y-111021904D01*
X124340952Y-111069523D01*
X124721904Y-111069523D01*
X124817142Y-111021904D01*
X124864761Y-110974285D01*
X124912380Y-110879047D01*
X124912380Y-110688571D01*
X124864761Y-110593333D01*
X124817142Y-110545714D01*
X124721904Y-110498095D01*
X124483809Y-110498095D01*
X124388571Y-110545714D01*
X124340952Y-110593333D01*
X124293333Y-110688571D01*
X124293333Y-110879047D01*
X124340952Y-110974285D01*
X124388571Y-111021904D01*
X124483809Y-111069523D01*
%TO.C,R23*%
X163012380Y-114942857D02*
X162536190Y-115276190D01*
X163012380Y-115514285D02*
X162012380Y-115514285D01*
X162012380Y-115133333D01*
X162060000Y-115038095D01*
X162107619Y-114990476D01*
X162202857Y-114942857D01*
X162345714Y-114942857D01*
X162440952Y-114990476D01*
X162488571Y-115038095D01*
X162536190Y-115133333D01*
X162536190Y-115514285D01*
X162107619Y-114561904D02*
X162060000Y-114514285D01*
X162012380Y-114419047D01*
X162012380Y-114180952D01*
X162060000Y-114085714D01*
X162107619Y-114038095D01*
X162202857Y-113990476D01*
X162298095Y-113990476D01*
X162440952Y-114038095D01*
X163012380Y-114609523D01*
X163012380Y-113990476D01*
X162012380Y-113657142D02*
X162012380Y-113038095D01*
X162393333Y-113371428D01*
X162393333Y-113228571D01*
X162440952Y-113133333D01*
X162488571Y-113085714D01*
X162583809Y-113038095D01*
X162821904Y-113038095D01*
X162917142Y-113085714D01*
X162964761Y-113133333D01*
X163012380Y-113228571D01*
X163012380Y-113514285D01*
X162964761Y-113609523D01*
X162917142Y-113657142D01*
%TO.C,R15*%
X157932380Y-114942857D02*
X157456190Y-115276190D01*
X157932380Y-115514285D02*
X156932380Y-115514285D01*
X156932380Y-115133333D01*
X156980000Y-115038095D01*
X157027619Y-114990476D01*
X157122857Y-114942857D01*
X157265714Y-114942857D01*
X157360952Y-114990476D01*
X157408571Y-115038095D01*
X157456190Y-115133333D01*
X157456190Y-115514285D01*
X157932380Y-113990476D02*
X157932380Y-114561904D01*
X157932380Y-114276190D02*
X156932380Y-114276190D01*
X157075238Y-114371428D01*
X157170476Y-114466666D01*
X157218095Y-114561904D01*
X156932380Y-113085714D02*
X156932380Y-113561904D01*
X157408571Y-113609523D01*
X157360952Y-113561904D01*
X157313333Y-113466666D01*
X157313333Y-113228571D01*
X157360952Y-113133333D01*
X157408571Y-113085714D01*
X157503809Y-113038095D01*
X157741904Y-113038095D01*
X157837142Y-113085714D01*
X157884761Y-113133333D01*
X157932380Y-113228571D01*
X157932380Y-113466666D01*
X157884761Y-113561904D01*
X157837142Y-113609523D01*
%TO.C,R10*%
X160472380Y-99702857D02*
X159996190Y-100036190D01*
X160472380Y-100274285D02*
X159472380Y-100274285D01*
X159472380Y-99893333D01*
X159520000Y-99798095D01*
X159567619Y-99750476D01*
X159662857Y-99702857D01*
X159805714Y-99702857D01*
X159900952Y-99750476D01*
X159948571Y-99798095D01*
X159996190Y-99893333D01*
X159996190Y-100274285D01*
X160472380Y-98750476D02*
X160472380Y-99321904D01*
X160472380Y-99036190D02*
X159472380Y-99036190D01*
X159615238Y-99131428D01*
X159710476Y-99226666D01*
X159758095Y-99321904D01*
X159472380Y-98131428D02*
X159472380Y-98036190D01*
X159520000Y-97940952D01*
X159567619Y-97893333D01*
X159662857Y-97845714D01*
X159853333Y-97798095D01*
X160091428Y-97798095D01*
X160281904Y-97845714D01*
X160377142Y-97893333D01*
X160424761Y-97940952D01*
X160472380Y-98036190D01*
X160472380Y-98131428D01*
X160424761Y-98226666D01*
X160377142Y-98274285D01*
X160281904Y-98321904D01*
X160091428Y-98369523D01*
X159853333Y-98369523D01*
X159662857Y-98321904D01*
X159567619Y-98274285D01*
X159520000Y-98226666D01*
X159472380Y-98131428D01*
%TO.C,R17*%
X129992380Y-97162857D02*
X129516190Y-97496190D01*
X129992380Y-97734285D02*
X128992380Y-97734285D01*
X128992380Y-97353333D01*
X129040000Y-97258095D01*
X129087619Y-97210476D01*
X129182857Y-97162857D01*
X129325714Y-97162857D01*
X129420952Y-97210476D01*
X129468571Y-97258095D01*
X129516190Y-97353333D01*
X129516190Y-97734285D01*
X129992380Y-96210476D02*
X129992380Y-96781904D01*
X129992380Y-96496190D02*
X128992380Y-96496190D01*
X129135238Y-96591428D01*
X129230476Y-96686666D01*
X129278095Y-96781904D01*
X128992380Y-95877142D02*
X128992380Y-95210476D01*
X129992380Y-95639047D01*
%TO.C,R1*%
X168092380Y-129706666D02*
X167616190Y-130040000D01*
X168092380Y-130278095D02*
X167092380Y-130278095D01*
X167092380Y-129897142D01*
X167140000Y-129801904D01*
X167187619Y-129754285D01*
X167282857Y-129706666D01*
X167425714Y-129706666D01*
X167520952Y-129754285D01*
X167568571Y-129801904D01*
X167616190Y-129897142D01*
X167616190Y-130278095D01*
X168092380Y-128754285D02*
X168092380Y-129325714D01*
X168092380Y-129040000D02*
X167092380Y-129040000D01*
X167235238Y-129135238D01*
X167330476Y-129230476D01*
X167378095Y-129325714D01*
%TO.C,J3*%
X88352380Y-103203333D02*
X89066666Y-103203333D01*
X89209523Y-103250952D01*
X89304761Y-103346190D01*
X89352380Y-103489047D01*
X89352380Y-103584285D01*
X88352380Y-102822380D02*
X88352380Y-102203333D01*
X88733333Y-102536666D01*
X88733333Y-102393809D01*
X88780952Y-102298571D01*
X88828571Y-102250952D01*
X88923809Y-102203333D01*
X89161904Y-102203333D01*
X89257142Y-102250952D01*
X89304761Y-102298571D01*
X89352380Y-102393809D01*
X89352380Y-102679523D01*
X89304761Y-102774761D01*
X89257142Y-102822380D01*
%TO.C,U3*%
X102305595Y-133222380D02*
X102305595Y-134031904D01*
X102353214Y-134127142D01*
X102400833Y-134174761D01*
X102496071Y-134222380D01*
X102686547Y-134222380D01*
X102781785Y-134174761D01*
X102829404Y-134127142D01*
X102877023Y-134031904D01*
X102877023Y-133222380D01*
X103257976Y-133222380D02*
X103877023Y-133222380D01*
X103543690Y-133603333D01*
X103686547Y-133603333D01*
X103781785Y-133650952D01*
X103829404Y-133698571D01*
X103877023Y-133793809D01*
X103877023Y-134031904D01*
X103829404Y-134127142D01*
X103781785Y-134174761D01*
X103686547Y-134222380D01*
X103400833Y-134222380D01*
X103305595Y-134174761D01*
X103257976Y-134127142D01*
X101388333Y-146261666D02*
X101993095Y-146261666D01*
X101267380Y-146624523D02*
X101690714Y-145354523D01*
X102114047Y-146624523D01*
X102537380Y-146624523D02*
X102537380Y-145354523D01*
X102839761Y-145354523D01*
X103021190Y-145415000D01*
X103142142Y-145535952D01*
X103202619Y-145656904D01*
X103263095Y-145898809D01*
X103263095Y-146080238D01*
X103202619Y-146322142D01*
X103142142Y-146443095D01*
X103021190Y-146564047D01*
X102839761Y-146624523D01*
X102537380Y-146624523D01*
X103807380Y-146624523D02*
X103807380Y-145354523D01*
X104230714Y-146261666D01*
X104654047Y-145354523D01*
X104654047Y-146624523D01*
X105803095Y-145354523D02*
X105561190Y-145354523D01*
X105440238Y-145415000D01*
X105379761Y-145475476D01*
X105258809Y-145656904D01*
X105198333Y-145898809D01*
X105198333Y-146382619D01*
X105258809Y-146503571D01*
X105319285Y-146564047D01*
X105440238Y-146624523D01*
X105682142Y-146624523D01*
X105803095Y-146564047D01*
X105863571Y-146503571D01*
X105924047Y-146382619D01*
X105924047Y-146080238D01*
X105863571Y-145959285D01*
X105803095Y-145898809D01*
X105682142Y-145838333D01*
X105440238Y-145838333D01*
X105319285Y-145898809D01*
X105258809Y-145959285D01*
X105198333Y-146080238D01*
X107012619Y-145354523D02*
X106770714Y-145354523D01*
X106649761Y-145415000D01*
X106589285Y-145475476D01*
X106468333Y-145656904D01*
X106407857Y-145898809D01*
X106407857Y-146382619D01*
X106468333Y-146503571D01*
X106528809Y-146564047D01*
X106649761Y-146624523D01*
X106891666Y-146624523D01*
X107012619Y-146564047D01*
X107073095Y-146503571D01*
X107133571Y-146382619D01*
X107133571Y-146080238D01*
X107073095Y-145959285D01*
X107012619Y-145898809D01*
X106891666Y-145838333D01*
X106649761Y-145838333D01*
X106528809Y-145898809D01*
X106468333Y-145959285D01*
X106407857Y-146080238D01*
X107919761Y-145354523D02*
X108040714Y-145354523D01*
X108161666Y-145415000D01*
X108222142Y-145475476D01*
X108282619Y-145596428D01*
X108343095Y-145838333D01*
X108343095Y-146140714D01*
X108282619Y-146382619D01*
X108222142Y-146503571D01*
X108161666Y-146564047D01*
X108040714Y-146624523D01*
X107919761Y-146624523D01*
X107798809Y-146564047D01*
X107738333Y-146503571D01*
X107677857Y-146382619D01*
X107617380Y-146140714D01*
X107617380Y-145838333D01*
X107677857Y-145596428D01*
X107738333Y-145475476D01*
X107798809Y-145415000D01*
X107919761Y-145354523D01*
X108826904Y-146261666D02*
X109431666Y-146261666D01*
X108705952Y-146624523D02*
X109129285Y-145354523D01*
X109552619Y-146624523D01*
X109975952Y-146624523D02*
X109975952Y-145354523D01*
X110701666Y-146624523D01*
X110701666Y-145354523D01*
X111185476Y-145354523D02*
X112032142Y-145354523D01*
X111185476Y-146624523D01*
X112032142Y-146624523D01*
%TO.C,R12*%
X129992380Y-112402857D02*
X129516190Y-112736190D01*
X129992380Y-112974285D02*
X128992380Y-112974285D01*
X128992380Y-112593333D01*
X129040000Y-112498095D01*
X129087619Y-112450476D01*
X129182857Y-112402857D01*
X129325714Y-112402857D01*
X129420952Y-112450476D01*
X129468571Y-112498095D01*
X129516190Y-112593333D01*
X129516190Y-112974285D01*
X129992380Y-111450476D02*
X129992380Y-112021904D01*
X129992380Y-111736190D02*
X128992380Y-111736190D01*
X129135238Y-111831428D01*
X129230476Y-111926666D01*
X129278095Y-112021904D01*
X129087619Y-111069523D02*
X129040000Y-111021904D01*
X128992380Y-110926666D01*
X128992380Y-110688571D01*
X129040000Y-110593333D01*
X129087619Y-110545714D01*
X129182857Y-110498095D01*
X129278095Y-110498095D01*
X129420952Y-110545714D01*
X129992380Y-111117142D01*
X129992380Y-110498095D01*
%TO.C,R22*%
X108577142Y-104592380D02*
X108243809Y-104116190D01*
X108005714Y-104592380D02*
X108005714Y-103592380D01*
X108386666Y-103592380D01*
X108481904Y-103640000D01*
X108529523Y-103687619D01*
X108577142Y-103782857D01*
X108577142Y-103925714D01*
X108529523Y-104020952D01*
X108481904Y-104068571D01*
X108386666Y-104116190D01*
X108005714Y-104116190D01*
X108958095Y-103687619D02*
X109005714Y-103640000D01*
X109100952Y-103592380D01*
X109339047Y-103592380D01*
X109434285Y-103640000D01*
X109481904Y-103687619D01*
X109529523Y-103782857D01*
X109529523Y-103878095D01*
X109481904Y-104020952D01*
X108910476Y-104592380D01*
X109529523Y-104592380D01*
X109910476Y-103687619D02*
X109958095Y-103640000D01*
X110053333Y-103592380D01*
X110291428Y-103592380D01*
X110386666Y-103640000D01*
X110434285Y-103687619D01*
X110481904Y-103782857D01*
X110481904Y-103878095D01*
X110434285Y-104020952D01*
X109862857Y-104592380D01*
X110481904Y-104592380D01*
%TO.C,R5*%
X129992380Y-128436666D02*
X129516190Y-128770000D01*
X129992380Y-129008095D02*
X128992380Y-129008095D01*
X128992380Y-128627142D01*
X129040000Y-128531904D01*
X129087619Y-128484285D01*
X129182857Y-128436666D01*
X129325714Y-128436666D01*
X129420952Y-128484285D01*
X129468571Y-128531904D01*
X129516190Y-128627142D01*
X129516190Y-129008095D01*
X128992380Y-127531904D02*
X128992380Y-128008095D01*
X129468571Y-128055714D01*
X129420952Y-128008095D01*
X129373333Y-127912857D01*
X129373333Y-127674761D01*
X129420952Y-127579523D01*
X129468571Y-127531904D01*
X129563809Y-127484285D01*
X129801904Y-127484285D01*
X129897142Y-127531904D01*
X129944761Y-127579523D01*
X129992380Y-127674761D01*
X129992380Y-127912857D01*
X129944761Y-128008095D01*
X129897142Y-128055714D01*
%TO.C,TP8*%
X97798095Y-107024380D02*
X98369523Y-107024380D01*
X98083809Y-108024380D02*
X98083809Y-107024380D01*
X98702857Y-108024380D02*
X98702857Y-107024380D01*
X99083809Y-107024380D01*
X99179047Y-107072000D01*
X99226666Y-107119619D01*
X99274285Y-107214857D01*
X99274285Y-107357714D01*
X99226666Y-107452952D01*
X99179047Y-107500571D01*
X99083809Y-107548190D01*
X98702857Y-107548190D01*
X99845714Y-107452952D02*
X99750476Y-107405333D01*
X99702857Y-107357714D01*
X99655238Y-107262476D01*
X99655238Y-107214857D01*
X99702857Y-107119619D01*
X99750476Y-107072000D01*
X99845714Y-107024380D01*
X100036190Y-107024380D01*
X100131428Y-107072000D01*
X100179047Y-107119619D01*
X100226666Y-107214857D01*
X100226666Y-107262476D01*
X100179047Y-107357714D01*
X100131428Y-107405333D01*
X100036190Y-107452952D01*
X99845714Y-107452952D01*
X99750476Y-107500571D01*
X99702857Y-107548190D01*
X99655238Y-107643428D01*
X99655238Y-107833904D01*
X99702857Y-107929142D01*
X99750476Y-107976761D01*
X99845714Y-108024380D01*
X100036190Y-108024380D01*
X100131428Y-107976761D01*
X100179047Y-107929142D01*
X100226666Y-107833904D01*
X100226666Y-107643428D01*
X100179047Y-107548190D01*
X100131428Y-107500571D01*
X100036190Y-107452952D01*
%TO.C,R26*%
X155392380Y-144152857D02*
X154916190Y-144486190D01*
X155392380Y-144724285D02*
X154392380Y-144724285D01*
X154392380Y-144343333D01*
X154440000Y-144248095D01*
X154487619Y-144200476D01*
X154582857Y-144152857D01*
X154725714Y-144152857D01*
X154820952Y-144200476D01*
X154868571Y-144248095D01*
X154916190Y-144343333D01*
X154916190Y-144724285D01*
X154487619Y-143771904D02*
X154440000Y-143724285D01*
X154392380Y-143629047D01*
X154392380Y-143390952D01*
X154440000Y-143295714D01*
X154487619Y-143248095D01*
X154582857Y-143200476D01*
X154678095Y-143200476D01*
X154820952Y-143248095D01*
X155392380Y-143819523D01*
X155392380Y-143200476D01*
X154392380Y-142343333D02*
X154392380Y-142533809D01*
X154440000Y-142629047D01*
X154487619Y-142676666D01*
X154630476Y-142771904D01*
X154820952Y-142819523D01*
X155201904Y-142819523D01*
X155297142Y-142771904D01*
X155344761Y-142724285D01*
X155392380Y-142629047D01*
X155392380Y-142438571D01*
X155344761Y-142343333D01*
X155297142Y-142295714D01*
X155201904Y-142248095D01*
X154963809Y-142248095D01*
X154868571Y-142295714D01*
X154820952Y-142343333D01*
X154773333Y-142438571D01*
X154773333Y-142629047D01*
X154820952Y-142724285D01*
X154868571Y-142771904D01*
X154963809Y-142819523D01*
%TO.C,TP5*%
X97798095Y-91784380D02*
X98369523Y-91784380D01*
X98083809Y-92784380D02*
X98083809Y-91784380D01*
X98702857Y-92784380D02*
X98702857Y-91784380D01*
X99083809Y-91784380D01*
X99179047Y-91832000D01*
X99226666Y-91879619D01*
X99274285Y-91974857D01*
X99274285Y-92117714D01*
X99226666Y-92212952D01*
X99179047Y-92260571D01*
X99083809Y-92308190D01*
X98702857Y-92308190D01*
X100179047Y-91784380D02*
X99702857Y-91784380D01*
X99655238Y-92260571D01*
X99702857Y-92212952D01*
X99798095Y-92165333D01*
X100036190Y-92165333D01*
X100131428Y-92212952D01*
X100179047Y-92260571D01*
X100226666Y-92355809D01*
X100226666Y-92593904D01*
X100179047Y-92689142D01*
X100131428Y-92736761D01*
X100036190Y-92784380D01*
X99798095Y-92784380D01*
X99702857Y-92736761D01*
X99655238Y-92689142D01*
%TO.C,TP3*%
X93861095Y-115152380D02*
X94432523Y-115152380D01*
X94146809Y-116152380D02*
X94146809Y-115152380D01*
X94765857Y-116152380D02*
X94765857Y-115152380D01*
X95146809Y-115152380D01*
X95242047Y-115200000D01*
X95289666Y-115247619D01*
X95337285Y-115342857D01*
X95337285Y-115485714D01*
X95289666Y-115580952D01*
X95242047Y-115628571D01*
X95146809Y-115676190D01*
X94765857Y-115676190D01*
X95670619Y-115152380D02*
X96289666Y-115152380D01*
X95956333Y-115533333D01*
X96099190Y-115533333D01*
X96194428Y-115580952D01*
X96242047Y-115628571D01*
X96289666Y-115723809D01*
X96289666Y-115961904D01*
X96242047Y-116057142D01*
X96194428Y-116104761D01*
X96099190Y-116152380D01*
X95813476Y-116152380D01*
X95718238Y-116104761D01*
X95670619Y-116057142D01*
%TO.C,TP1*%
X82738095Y-129852380D02*
X83309523Y-129852380D01*
X83023809Y-130852380D02*
X83023809Y-129852380D01*
X83642857Y-130852380D02*
X83642857Y-129852380D01*
X84023809Y-129852380D01*
X84119047Y-129900000D01*
X84166666Y-129947619D01*
X84214285Y-130042857D01*
X84214285Y-130185714D01*
X84166666Y-130280952D01*
X84119047Y-130328571D01*
X84023809Y-130376190D01*
X83642857Y-130376190D01*
X85166666Y-130852380D02*
X84595238Y-130852380D01*
X84880952Y-130852380D02*
X84880952Y-129852380D01*
X84785714Y-129995238D01*
X84690476Y-130090476D01*
X84595238Y-130138095D01*
%TO.C,TP9*%
X114308095Y-143854380D02*
X114879523Y-143854380D01*
X114593809Y-144854380D02*
X114593809Y-143854380D01*
X115212857Y-144854380D02*
X115212857Y-143854380D01*
X115593809Y-143854380D01*
X115689047Y-143902000D01*
X115736666Y-143949619D01*
X115784285Y-144044857D01*
X115784285Y-144187714D01*
X115736666Y-144282952D01*
X115689047Y-144330571D01*
X115593809Y-144378190D01*
X115212857Y-144378190D01*
X116260476Y-144854380D02*
X116450952Y-144854380D01*
X116546190Y-144806761D01*
X116593809Y-144759142D01*
X116689047Y-144616285D01*
X116736666Y-144425809D01*
X116736666Y-144044857D01*
X116689047Y-143949619D01*
X116641428Y-143902000D01*
X116546190Y-143854380D01*
X116355714Y-143854380D01*
X116260476Y-143902000D01*
X116212857Y-143949619D01*
X116165238Y-144044857D01*
X116165238Y-144282952D01*
X116212857Y-144378190D01*
X116260476Y-144425809D01*
X116355714Y-144473428D01*
X116546190Y-144473428D01*
X116641428Y-144425809D01*
X116689047Y-144378190D01*
X116736666Y-144282952D01*
%TO.C,U2*%
X137668095Y-104862380D02*
X137668095Y-105671904D01*
X137715714Y-105767142D01*
X137763333Y-105814761D01*
X137858571Y-105862380D01*
X138049047Y-105862380D01*
X138144285Y-105814761D01*
X138191904Y-105767142D01*
X138239523Y-105671904D01*
X138239523Y-104862380D01*
X138668095Y-104957619D02*
X138715714Y-104910000D01*
X138810952Y-104862380D01*
X139049047Y-104862380D01*
X139144285Y-104910000D01*
X139191904Y-104957619D01*
X139239523Y-105052857D01*
X139239523Y-105148095D01*
X139191904Y-105290952D01*
X138620476Y-105862380D01*
X139239523Y-105862380D01*
%TO.C,TP2*%
X95258095Y-123534380D02*
X95829523Y-123534380D01*
X95543809Y-124534380D02*
X95543809Y-123534380D01*
X96162857Y-124534380D02*
X96162857Y-123534380D01*
X96543809Y-123534380D01*
X96639047Y-123582000D01*
X96686666Y-123629619D01*
X96734285Y-123724857D01*
X96734285Y-123867714D01*
X96686666Y-123962952D01*
X96639047Y-124010571D01*
X96543809Y-124058190D01*
X96162857Y-124058190D01*
X97115238Y-123629619D02*
X97162857Y-123582000D01*
X97258095Y-123534380D01*
X97496190Y-123534380D01*
X97591428Y-123582000D01*
X97639047Y-123629619D01*
X97686666Y-123724857D01*
X97686666Y-123820095D01*
X97639047Y-123962952D01*
X97067619Y-124534380D01*
X97686666Y-124534380D01*
%TO.C,TP7*%
X97798095Y-101944380D02*
X98369523Y-101944380D01*
X98083809Y-102944380D02*
X98083809Y-101944380D01*
X98702857Y-102944380D02*
X98702857Y-101944380D01*
X99083809Y-101944380D01*
X99179047Y-101992000D01*
X99226666Y-102039619D01*
X99274285Y-102134857D01*
X99274285Y-102277714D01*
X99226666Y-102372952D01*
X99179047Y-102420571D01*
X99083809Y-102468190D01*
X98702857Y-102468190D01*
X99607619Y-101944380D02*
X100274285Y-101944380D01*
X99845714Y-102944380D01*
%TO.C,H4*%
X166052095Y-144872380D02*
X166052095Y-143872380D01*
X166052095Y-144348571D02*
X166623523Y-144348571D01*
X166623523Y-144872380D02*
X166623523Y-143872380D01*
X167528285Y-144205714D02*
X167528285Y-144872380D01*
X167290190Y-143824761D02*
X167052095Y-144539047D01*
X167671142Y-144539047D01*
%TO.C,R3*%
X129992380Y-142406666D02*
X129516190Y-142740000D01*
X129992380Y-142978095D02*
X128992380Y-142978095D01*
X128992380Y-142597142D01*
X129040000Y-142501904D01*
X129087619Y-142454285D01*
X129182857Y-142406666D01*
X129325714Y-142406666D01*
X129420952Y-142454285D01*
X129468571Y-142501904D01*
X129516190Y-142597142D01*
X129516190Y-142978095D01*
X128992380Y-142073333D02*
X128992380Y-141454285D01*
X129373333Y-141787619D01*
X129373333Y-141644761D01*
X129420952Y-141549523D01*
X129468571Y-141501904D01*
X129563809Y-141454285D01*
X129801904Y-141454285D01*
X129897142Y-141501904D01*
X129944761Y-141549523D01*
X129992380Y-141644761D01*
X129992380Y-141930476D01*
X129944761Y-142025714D01*
X129897142Y-142073333D01*
%TO.C,J2*%
X69522380Y-131295733D02*
X70236666Y-131295733D01*
X70379523Y-131343352D01*
X70474761Y-131438590D01*
X70522380Y-131581447D01*
X70522380Y-131676685D01*
X69617619Y-130867161D02*
X69570000Y-130819542D01*
X69522380Y-130724304D01*
X69522380Y-130486209D01*
X69570000Y-130390971D01*
X69617619Y-130343352D01*
X69712857Y-130295733D01*
X69808095Y-130295733D01*
X69950952Y-130343352D01*
X70522380Y-130914780D01*
X70522380Y-130295733D01*
%TO.C,TP12*%
X97321904Y-143854380D02*
X97893333Y-143854380D01*
X97607619Y-144854380D02*
X97607619Y-143854380D01*
X98226666Y-144854380D02*
X98226666Y-143854380D01*
X98607619Y-143854380D01*
X98702857Y-143902000D01*
X98750476Y-143949619D01*
X98798095Y-144044857D01*
X98798095Y-144187714D01*
X98750476Y-144282952D01*
X98702857Y-144330571D01*
X98607619Y-144378190D01*
X98226666Y-144378190D01*
X99750476Y-144854380D02*
X99179047Y-144854380D01*
X99464761Y-144854380D02*
X99464761Y-143854380D01*
X99369523Y-143997238D01*
X99274285Y-144092476D01*
X99179047Y-144140095D01*
X100131428Y-143949619D02*
X100179047Y-143902000D01*
X100274285Y-143854380D01*
X100512380Y-143854380D01*
X100607619Y-143902000D01*
X100655238Y-143949619D01*
X100702857Y-144044857D01*
X100702857Y-144140095D01*
X100655238Y-144282952D01*
X100083809Y-144854380D01*
X100702857Y-144854380D01*
%TO.C,J4*%
X89216666Y-150412380D02*
X89216666Y-151126666D01*
X89169047Y-151269523D01*
X89073809Y-151364761D01*
X88930952Y-151412380D01*
X88835714Y-151412380D01*
X90121428Y-150745714D02*
X90121428Y-151412380D01*
X89883333Y-150364761D02*
X89645238Y-151079047D01*
X90264285Y-151079047D01*
%TO.C,R20*%
X88234780Y-131452857D02*
X87758590Y-131786190D01*
X88234780Y-132024285D02*
X87234780Y-132024285D01*
X87234780Y-131643333D01*
X87282400Y-131548095D01*
X87330019Y-131500476D01*
X87425257Y-131452857D01*
X87568114Y-131452857D01*
X87663352Y-131500476D01*
X87710971Y-131548095D01*
X87758590Y-131643333D01*
X87758590Y-132024285D01*
X87330019Y-131071904D02*
X87282400Y-131024285D01*
X87234780Y-130929047D01*
X87234780Y-130690952D01*
X87282400Y-130595714D01*
X87330019Y-130548095D01*
X87425257Y-130500476D01*
X87520495Y-130500476D01*
X87663352Y-130548095D01*
X88234780Y-131119523D01*
X88234780Y-130500476D01*
X87234780Y-129881428D02*
X87234780Y-129786190D01*
X87282400Y-129690952D01*
X87330019Y-129643333D01*
X87425257Y-129595714D01*
X87615733Y-129548095D01*
X87853828Y-129548095D01*
X88044304Y-129595714D01*
X88139542Y-129643333D01*
X88187161Y-129690952D01*
X88234780Y-129786190D01*
X88234780Y-129881428D01*
X88187161Y-129976666D01*
X88139542Y-130024285D01*
X88044304Y-130071904D01*
X87853828Y-130119523D01*
X87615733Y-130119523D01*
X87425257Y-130071904D01*
X87330019Y-130024285D01*
X87282400Y-129976666D01*
X87234780Y-129881428D01*
%TO.C,R7*%
X109053333Y-94432380D02*
X108720000Y-93956190D01*
X108481904Y-94432380D02*
X108481904Y-93432380D01*
X108862857Y-93432380D01*
X108958095Y-93480000D01*
X109005714Y-93527619D01*
X109053333Y-93622857D01*
X109053333Y-93765714D01*
X109005714Y-93860952D01*
X108958095Y-93908571D01*
X108862857Y-93956190D01*
X108481904Y-93956190D01*
X109386666Y-93432380D02*
X110053333Y-93432380D01*
X109624761Y-94432380D01*
%TO.C,H1*%
X71551895Y-91532380D02*
X71551895Y-90532380D01*
X71551895Y-91008571D02*
X72123323Y-91008571D01*
X72123323Y-91532380D02*
X72123323Y-90532380D01*
X73123323Y-91532380D02*
X72551895Y-91532380D01*
X72837609Y-91532380D02*
X72837609Y-90532380D01*
X72742371Y-90675238D01*
X72647133Y-90770476D01*
X72551895Y-90818095D01*
%TO.C,R25*%
X160472380Y-144152857D02*
X159996190Y-144486190D01*
X160472380Y-144724285D02*
X159472380Y-144724285D01*
X159472380Y-144343333D01*
X159520000Y-144248095D01*
X159567619Y-144200476D01*
X159662857Y-144152857D01*
X159805714Y-144152857D01*
X159900952Y-144200476D01*
X159948571Y-144248095D01*
X159996190Y-144343333D01*
X159996190Y-144724285D01*
X159567619Y-143771904D02*
X159520000Y-143724285D01*
X159472380Y-143629047D01*
X159472380Y-143390952D01*
X159520000Y-143295714D01*
X159567619Y-143248095D01*
X159662857Y-143200476D01*
X159758095Y-143200476D01*
X159900952Y-143248095D01*
X160472380Y-143819523D01*
X160472380Y-143200476D01*
X159472380Y-142295714D02*
X159472380Y-142771904D01*
X159948571Y-142819523D01*
X159900952Y-142771904D01*
X159853333Y-142676666D01*
X159853333Y-142438571D01*
X159900952Y-142343333D01*
X159948571Y-142295714D01*
X160043809Y-142248095D01*
X160281904Y-142248095D01*
X160377142Y-142295714D01*
X160424761Y-142343333D01*
X160472380Y-142438571D01*
X160472380Y-142676666D01*
X160424761Y-142771904D01*
X160377142Y-142819523D01*
%TO.C,R2*%
X163012380Y-129706666D02*
X162536190Y-130040000D01*
X163012380Y-130278095D02*
X162012380Y-130278095D01*
X162012380Y-129897142D01*
X162060000Y-129801904D01*
X162107619Y-129754285D01*
X162202857Y-129706666D01*
X162345714Y-129706666D01*
X162440952Y-129754285D01*
X162488571Y-129801904D01*
X162536190Y-129897142D01*
X162536190Y-130278095D01*
X162107619Y-129325714D02*
X162060000Y-129278095D01*
X162012380Y-129182857D01*
X162012380Y-128944761D01*
X162060000Y-128849523D01*
X162107619Y-128801904D01*
X162202857Y-128754285D01*
X162298095Y-128754285D01*
X162440952Y-128801904D01*
X163012380Y-129373333D01*
X163012380Y-128754285D01*
%TO.C,R21*%
X108577142Y-109672380D02*
X108243809Y-109196190D01*
X108005714Y-109672380D02*
X108005714Y-108672380D01*
X108386666Y-108672380D01*
X108481904Y-108720000D01*
X108529523Y-108767619D01*
X108577142Y-108862857D01*
X108577142Y-109005714D01*
X108529523Y-109100952D01*
X108481904Y-109148571D01*
X108386666Y-109196190D01*
X108005714Y-109196190D01*
X108958095Y-108767619D02*
X109005714Y-108720000D01*
X109100952Y-108672380D01*
X109339047Y-108672380D01*
X109434285Y-108720000D01*
X109481904Y-108767619D01*
X109529523Y-108862857D01*
X109529523Y-108958095D01*
X109481904Y-109100952D01*
X108910476Y-109672380D01*
X109529523Y-109672380D01*
X110481904Y-109672380D02*
X109910476Y-109672380D01*
X110196190Y-109672380D02*
X110196190Y-108672380D01*
X110100952Y-108815238D01*
X110005714Y-108910476D01*
X109910476Y-108958095D01*
%TO.C,TP11*%
X83351904Y-118629380D02*
X83923333Y-118629380D01*
X83637619Y-119629380D02*
X83637619Y-118629380D01*
X84256666Y-119629380D02*
X84256666Y-118629380D01*
X84637619Y-118629380D01*
X84732857Y-118677000D01*
X84780476Y-118724619D01*
X84828095Y-118819857D01*
X84828095Y-118962714D01*
X84780476Y-119057952D01*
X84732857Y-119105571D01*
X84637619Y-119153190D01*
X84256666Y-119153190D01*
X85780476Y-119629380D02*
X85209047Y-119629380D01*
X85494761Y-119629380D02*
X85494761Y-118629380D01*
X85399523Y-118772238D01*
X85304285Y-118867476D01*
X85209047Y-118915095D01*
X86732857Y-119629380D02*
X86161428Y-119629380D01*
X86447142Y-119629380D02*
X86447142Y-118629380D01*
X86351904Y-118772238D01*
X86256666Y-118867476D01*
X86161428Y-118915095D01*
%TO.C,R9*%
X135072380Y-142406666D02*
X134596190Y-142740000D01*
X135072380Y-142978095D02*
X134072380Y-142978095D01*
X134072380Y-142597142D01*
X134120000Y-142501904D01*
X134167619Y-142454285D01*
X134262857Y-142406666D01*
X134405714Y-142406666D01*
X134500952Y-142454285D01*
X134548571Y-142501904D01*
X134596190Y-142597142D01*
X134596190Y-142978095D01*
X135072380Y-141930476D02*
X135072380Y-141740000D01*
X135024761Y-141644761D01*
X134977142Y-141597142D01*
X134834285Y-141501904D01*
X134643809Y-141454285D01*
X134262857Y-141454285D01*
X134167619Y-141501904D01*
X134120000Y-141549523D01*
X134072380Y-141644761D01*
X134072380Y-141835238D01*
X134120000Y-141930476D01*
X134167619Y-141978095D01*
X134262857Y-142025714D01*
X134500952Y-142025714D01*
X134596190Y-141978095D01*
X134643809Y-141930476D01*
X134691428Y-141835238D01*
X134691428Y-141644761D01*
X134643809Y-141549523D01*
X134596190Y-141501904D01*
X134500952Y-141454285D01*
%TO.C,TP10*%
X69381904Y-103214380D02*
X69953333Y-103214380D01*
X69667619Y-104214380D02*
X69667619Y-103214380D01*
X70286666Y-104214380D02*
X70286666Y-103214380D01*
X70667619Y-103214380D01*
X70762857Y-103262000D01*
X70810476Y-103309619D01*
X70858095Y-103404857D01*
X70858095Y-103547714D01*
X70810476Y-103642952D01*
X70762857Y-103690571D01*
X70667619Y-103738190D01*
X70286666Y-103738190D01*
X71810476Y-104214380D02*
X71239047Y-104214380D01*
X71524761Y-104214380D02*
X71524761Y-103214380D01*
X71429523Y-103357238D01*
X71334285Y-103452476D01*
X71239047Y-103500095D01*
X72429523Y-103214380D02*
X72524761Y-103214380D01*
X72620000Y-103262000D01*
X72667619Y-103309619D01*
X72715238Y-103404857D01*
X72762857Y-103595333D01*
X72762857Y-103833428D01*
X72715238Y-104023904D01*
X72667619Y-104119142D01*
X72620000Y-104166761D01*
X72524761Y-104214380D01*
X72429523Y-104214380D01*
X72334285Y-104166761D01*
X72286666Y-104119142D01*
X72239047Y-104023904D01*
X72191428Y-103833428D01*
X72191428Y-103595333D01*
X72239047Y-103404857D01*
X72286666Y-103309619D01*
X72334285Y-103262000D01*
X72429523Y-103214380D01*
%TO.C,R13*%
X124912380Y-97162857D02*
X124436190Y-97496190D01*
X124912380Y-97734285D02*
X123912380Y-97734285D01*
X123912380Y-97353333D01*
X123960000Y-97258095D01*
X124007619Y-97210476D01*
X124102857Y-97162857D01*
X124245714Y-97162857D01*
X124340952Y-97210476D01*
X124388571Y-97258095D01*
X124436190Y-97353333D01*
X124436190Y-97734285D01*
X124912380Y-96210476D02*
X124912380Y-96781904D01*
X124912380Y-96496190D02*
X123912380Y-96496190D01*
X124055238Y-96591428D01*
X124150476Y-96686666D01*
X124198095Y-96781904D01*
X123912380Y-95877142D02*
X123912380Y-95258095D01*
X124293333Y-95591428D01*
X124293333Y-95448571D01*
X124340952Y-95353333D01*
X124388571Y-95305714D01*
X124483809Y-95258095D01*
X124721904Y-95258095D01*
X124817142Y-95305714D01*
X124864761Y-95353333D01*
X124912380Y-95448571D01*
X124912380Y-95734285D01*
X124864761Y-95829523D01*
X124817142Y-95877142D01*
%TO.C,R19*%
X93162380Y-133992857D02*
X92686190Y-134326190D01*
X93162380Y-134564285D02*
X92162380Y-134564285D01*
X92162380Y-134183333D01*
X92210000Y-134088095D01*
X92257619Y-134040476D01*
X92352857Y-133992857D01*
X92495714Y-133992857D01*
X92590952Y-134040476D01*
X92638571Y-134088095D01*
X92686190Y-134183333D01*
X92686190Y-134564285D01*
X93162380Y-133040476D02*
X93162380Y-133611904D01*
X93162380Y-133326190D02*
X92162380Y-133326190D01*
X92305238Y-133421428D01*
X92400476Y-133516666D01*
X92448095Y-133611904D01*
X93162380Y-132564285D02*
X93162380Y-132373809D01*
X93114761Y-132278571D01*
X93067142Y-132230952D01*
X92924285Y-132135714D01*
X92733809Y-132088095D01*
X92352857Y-132088095D01*
X92257619Y-132135714D01*
X92210000Y-132183333D01*
X92162380Y-132278571D01*
X92162380Y-132469047D01*
X92210000Y-132564285D01*
X92257619Y-132611904D01*
X92352857Y-132659523D01*
X92590952Y-132659523D01*
X92686190Y-132611904D01*
X92733809Y-132564285D01*
X92781428Y-132469047D01*
X92781428Y-132278571D01*
X92733809Y-132183333D01*
X92686190Y-132135714D01*
X92590952Y-132088095D01*
%TO.C,TP6*%
X97798095Y-96864380D02*
X98369523Y-96864380D01*
X98083809Y-97864380D02*
X98083809Y-96864380D01*
X98702857Y-97864380D02*
X98702857Y-96864380D01*
X99083809Y-96864380D01*
X99179047Y-96912000D01*
X99226666Y-96959619D01*
X99274285Y-97054857D01*
X99274285Y-97197714D01*
X99226666Y-97292952D01*
X99179047Y-97340571D01*
X99083809Y-97388190D01*
X98702857Y-97388190D01*
X100131428Y-96864380D02*
X99940952Y-96864380D01*
X99845714Y-96912000D01*
X99798095Y-96959619D01*
X99702857Y-97102476D01*
X99655238Y-97292952D01*
X99655238Y-97673904D01*
X99702857Y-97769142D01*
X99750476Y-97816761D01*
X99845714Y-97864380D01*
X100036190Y-97864380D01*
X100131428Y-97816761D01*
X100179047Y-97769142D01*
X100226666Y-97673904D01*
X100226666Y-97435809D01*
X100179047Y-97340571D01*
X100131428Y-97292952D01*
X100036190Y-97245333D01*
X99845714Y-97245333D01*
X99750476Y-97292952D01*
X99702857Y-97340571D01*
X99655238Y-97435809D01*
%TO.C,R18*%
X108577142Y-99512380D02*
X108243809Y-99036190D01*
X108005714Y-99512380D02*
X108005714Y-98512380D01*
X108386666Y-98512380D01*
X108481904Y-98560000D01*
X108529523Y-98607619D01*
X108577142Y-98702857D01*
X108577142Y-98845714D01*
X108529523Y-98940952D01*
X108481904Y-98988571D01*
X108386666Y-99036190D01*
X108005714Y-99036190D01*
X109529523Y-99512380D02*
X108958095Y-99512380D01*
X109243809Y-99512380D02*
X109243809Y-98512380D01*
X109148571Y-98655238D01*
X109053333Y-98750476D01*
X108958095Y-98798095D01*
X110100952Y-98940952D02*
X110005714Y-98893333D01*
X109958095Y-98845714D01*
X109910476Y-98750476D01*
X109910476Y-98702857D01*
X109958095Y-98607619D01*
X110005714Y-98560000D01*
X110100952Y-98512380D01*
X110291428Y-98512380D01*
X110386666Y-98560000D01*
X110434285Y-98607619D01*
X110481904Y-98702857D01*
X110481904Y-98750476D01*
X110434285Y-98845714D01*
X110386666Y-98893333D01*
X110291428Y-98940952D01*
X110100952Y-98940952D01*
X110005714Y-98988571D01*
X109958095Y-99036190D01*
X109910476Y-99131428D01*
X109910476Y-99321904D01*
X109958095Y-99417142D01*
X110005714Y-99464761D01*
X110100952Y-99512380D01*
X110291428Y-99512380D01*
X110386666Y-99464761D01*
X110434285Y-99417142D01*
X110481904Y-99321904D01*
X110481904Y-99131428D01*
X110434285Y-99036190D01*
X110386666Y-98988571D01*
X110291428Y-98940952D01*
D13*
%TO.C,C11*%
X88166369Y-118920000D02*
X88166369Y-119470000D01*
X87891369Y-119195000D02*
X88441369Y-119195000D01*
X93833631Y-120810000D02*
G75*
G03*
X93833631Y-120810000I-2870000J0D01*
G01*
%TO.C,C10*%
X151464000Y-96310888D02*
G75*
G03*
X151464000Y-96310888I-2620000J0D01*
G01*
X150708000Y-98111888D02*
X149884000Y-98111888D01*
X147804000Y-98271888D02*
X147145000Y-98271888D01*
X151312000Y-97071888D02*
X149884000Y-97071888D01*
X150449000Y-98351888D02*
X149884000Y-98351888D01*
X147804000Y-96750888D02*
X146301000Y-96750888D01*
X150745000Y-98071888D02*
X149884000Y-98071888D01*
X147804000Y-98431888D02*
X147344000Y-98431888D01*
X151409000Y-96590888D02*
X149884000Y-96590888D01*
X147804000Y-97991888D02*
X146873000Y-97991888D01*
X149759000Y-98751888D02*
X147929000Y-98751888D01*
X147804000Y-98391888D02*
X147290000Y-98391888D01*
X151154000Y-97471888D02*
X149884000Y-97471888D01*
X150398000Y-98391888D02*
X149884000Y-98391888D01*
X151112000Y-97551888D02*
X149884000Y-97551888D01*
X147804000Y-97511888D02*
X146554000Y-97511888D01*
X147804000Y-96630888D02*
X146283000Y-96630888D01*
X147804000Y-97831888D02*
X146749000Y-97831888D01*
X151335000Y-96990888D02*
X149884000Y-96990888D01*
X150815000Y-97991888D02*
X149884000Y-97991888D01*
X151192000Y-97391888D02*
X149884000Y-97391888D01*
X150569000Y-93756113D02*
X150069000Y-93756113D01*
X147804000Y-97231888D02*
X146430000Y-97231888D01*
X147804000Y-97671888D02*
X146644000Y-97671888D01*
X150966000Y-97791888D02*
X149884000Y-97791888D01*
X150022000Y-98631888D02*
X147666000Y-98631888D01*
X150344000Y-98431888D02*
X149884000Y-98431888D01*
X150848000Y-97951888D02*
X149884000Y-97951888D01*
X147804000Y-97311888D02*
X146462000Y-97311888D01*
X149855000Y-98711888D02*
X147833000Y-98711888D01*
X151272000Y-97191888D02*
X149884000Y-97191888D01*
X149128000Y-98911888D02*
X148560000Y-98911888D01*
X147804000Y-96590888D02*
X146279000Y-96590888D01*
X147804000Y-97191888D02*
X146416000Y-97191888D01*
X150095000Y-98591888D02*
X149884000Y-98591888D01*
X149649000Y-98791888D02*
X148039000Y-98791888D01*
X147804000Y-98351888D02*
X147239000Y-98351888D01*
X150319000Y-93506113D02*
X150319000Y-94006113D01*
X151242000Y-97271888D02*
X149884000Y-97271888D01*
X147804000Y-97631888D02*
X146620000Y-97631888D01*
X147804000Y-97111888D02*
X146389000Y-97111888D01*
X147804000Y-98071888D02*
X146943000Y-98071888D01*
X147804000Y-97591888D02*
X146597000Y-97591888D01*
X147804000Y-97871888D02*
X146779000Y-97871888D01*
X147804000Y-97151888D02*
X146402000Y-97151888D01*
X147804000Y-98031888D02*
X146907000Y-98031888D01*
X151400000Y-96670888D02*
X149884000Y-96670888D01*
X150497000Y-98311888D02*
X149884000Y-98311888D01*
X147804000Y-97351888D02*
X146479000Y-97351888D01*
X150909000Y-97871888D02*
X149884000Y-97871888D01*
X151134000Y-97511888D02*
X149884000Y-97511888D01*
X147804000Y-98191888D02*
X147059000Y-98191888D01*
X147804000Y-96910888D02*
X146333000Y-96910888D01*
X151413000Y-96550888D02*
X149884000Y-96550888D01*
X151417000Y-96510888D02*
X146271000Y-96510888D01*
X151422000Y-96430888D02*
X146266000Y-96430888D01*
X147804000Y-97271888D02*
X146446000Y-97271888D01*
X147804000Y-97711888D02*
X146669000Y-97711888D01*
X151394000Y-96710888D02*
X149884000Y-96710888D01*
X151364000Y-96870888D02*
X149884000Y-96870888D01*
X151286000Y-97151888D02*
X149884000Y-97151888D01*
X147804000Y-96710888D02*
X146294000Y-96710888D01*
X150670000Y-98151888D02*
X149884000Y-98151888D01*
X147804000Y-97911888D02*
X146809000Y-97911888D01*
X151044000Y-97671888D02*
X149884000Y-97671888D01*
X151405000Y-96630888D02*
X149884000Y-96630888D01*
X151345000Y-96950888D02*
X149884000Y-96950888D01*
X147804000Y-98311888D02*
X147191000Y-98311888D01*
X151209000Y-97351888D02*
X149884000Y-97351888D01*
X151424000Y-96350888D02*
X146264000Y-96350888D01*
X151372000Y-96830888D02*
X149884000Y-96830888D01*
X147804000Y-96950888D02*
X146343000Y-96950888D01*
X151226000Y-97311888D02*
X149884000Y-97311888D01*
X147804000Y-97551888D02*
X146576000Y-97551888D01*
X150939000Y-97831888D02*
X149884000Y-97831888D01*
X151420000Y-96470888D02*
X146268000Y-96470888D01*
X151387000Y-96750888D02*
X149884000Y-96750888D01*
X147804000Y-96830888D02*
X146316000Y-96830888D01*
X147804000Y-96550888D02*
X146275000Y-96550888D01*
X150587000Y-98231888D02*
X149884000Y-98231888D01*
X149942000Y-98671888D02*
X147746000Y-98671888D01*
X151355000Y-96910888D02*
X149884000Y-96910888D01*
X147804000Y-98511888D02*
X147461000Y-98511888D01*
X147804000Y-96670888D02*
X146288000Y-96670888D01*
X151173000Y-97431888D02*
X149884000Y-97431888D01*
X150993000Y-97751888D02*
X149884000Y-97751888D01*
X150781000Y-98031888D02*
X149884000Y-98031888D01*
X147804000Y-98471888D02*
X147401000Y-98471888D01*
X150629000Y-98191888D02*
X149884000Y-98191888D01*
X147804000Y-97071888D02*
X146376000Y-97071888D01*
X151019000Y-97711888D02*
X149884000Y-97711888D01*
X149521000Y-98831888D02*
X148167000Y-98831888D01*
X147804000Y-96990888D02*
X146353000Y-96990888D01*
X151258000Y-97231888D02*
X149884000Y-97231888D01*
X151324000Y-97031888D02*
X149884000Y-97031888D01*
X151380000Y-96790888D02*
X149884000Y-96790888D01*
X147804000Y-96870888D02*
X146324000Y-96870888D01*
X147804000Y-98111888D02*
X146980000Y-98111888D01*
X147804000Y-98591888D02*
X147593000Y-98591888D01*
X147804000Y-98551888D02*
X147525000Y-98551888D01*
X147804000Y-97951888D02*
X146840000Y-97951888D01*
X147804000Y-98231888D02*
X147101000Y-98231888D01*
X147804000Y-97431888D02*
X146515000Y-97431888D01*
X151068000Y-97631888D02*
X149884000Y-97631888D01*
X151299000Y-97111888D02*
X149884000Y-97111888D01*
X149362000Y-98871888D02*
X148326000Y-98871888D01*
X150879000Y-97911888D02*
X149884000Y-97911888D01*
X151423000Y-96390888D02*
X146265000Y-96390888D01*
X150287000Y-98471888D02*
X149884000Y-98471888D01*
X147804000Y-97791888D02*
X146722000Y-97791888D01*
X147804000Y-97031888D02*
X146364000Y-97031888D01*
X147804000Y-97751888D02*
X146695000Y-97751888D01*
X147804000Y-98151888D02*
X147018000Y-98151888D01*
X147804000Y-97471888D02*
X146534000Y-97471888D01*
X151424000Y-96310888D02*
X146264000Y-96310888D01*
X151091000Y-97591888D02*
X149884000Y-97591888D01*
X147804000Y-96790888D02*
X146308000Y-96790888D01*
X150227000Y-98511888D02*
X149884000Y-98511888D01*
X150163000Y-98551888D02*
X149884000Y-98551888D01*
X150543000Y-98271888D02*
X149884000Y-98271888D01*
X147804000Y-97391888D02*
X146496000Y-97391888D01*
%TO.C,C9*%
X144169000Y-95267113D02*
X145477000Y-95267113D01*
X141430000Y-94387113D02*
X142089000Y-94387113D01*
X141810000Y-94107113D02*
X142089000Y-94107113D01*
X141746000Y-94147113D02*
X142089000Y-94147113D01*
X144169000Y-95868113D02*
X145665000Y-95868113D01*
X140882000Y-95067113D02*
X142089000Y-95067113D01*
X140549000Y-96348113D02*
X145709000Y-96348113D01*
X144169000Y-95187113D02*
X145439000Y-95187113D01*
X144169000Y-94507113D02*
X144955000Y-94507113D01*
X144169000Y-94907113D02*
X145278000Y-94907113D01*
X144169000Y-95627113D02*
X145609000Y-95627113D01*
X144169000Y-94867113D02*
X145251000Y-94867113D01*
X141686000Y-94187113D02*
X142089000Y-94187113D01*
X140550000Y-96268113D02*
X145708000Y-96268113D01*
X141094000Y-94747113D02*
X142089000Y-94747113D01*
X142611000Y-93787113D02*
X143647000Y-93787113D01*
X140674000Y-95547113D02*
X142089000Y-95547113D01*
X140905000Y-95027113D02*
X142089000Y-95027113D01*
X144169000Y-95227113D02*
X145458000Y-95227113D01*
X144169000Y-94427113D02*
X144872000Y-94427113D01*
X144169000Y-94707113D02*
X145133000Y-94707113D01*
X144169000Y-94107113D02*
X144448000Y-94107113D01*
X144169000Y-94067113D02*
X144380000Y-94067113D01*
X144169000Y-94547113D02*
X144993000Y-94547113D01*
X144169000Y-95788113D02*
X145649000Y-95788113D01*
X140593000Y-95868113D02*
X142089000Y-95868113D01*
X140649000Y-95627113D02*
X142089000Y-95627113D01*
X140715000Y-95427113D02*
X142089000Y-95427113D01*
X144169000Y-95668113D02*
X145620000Y-95668113D01*
X142452000Y-93827113D02*
X143806000Y-93827113D01*
X140954000Y-94947113D02*
X142089000Y-94947113D01*
X144169000Y-95587113D02*
X145597000Y-95587113D01*
X141344000Y-94467113D02*
X142089000Y-94467113D01*
X144169000Y-94187113D02*
X144572000Y-94187113D01*
X141192000Y-94627113D02*
X142089000Y-94627113D01*
X140980000Y-94907113D02*
X142089000Y-94907113D01*
X140800000Y-95227113D02*
X142089000Y-95227113D01*
X144169000Y-95988113D02*
X145685000Y-95988113D01*
X144169000Y-94147113D02*
X144512000Y-94147113D01*
X140618000Y-95748113D02*
X142089000Y-95748113D01*
X142031000Y-93987113D02*
X144227000Y-93987113D01*
X141386000Y-94427113D02*
X142089000Y-94427113D01*
X144169000Y-96108113D02*
X145698000Y-96108113D01*
X144169000Y-95828113D02*
X145657000Y-95828113D01*
X140586000Y-95908113D02*
X142089000Y-95908113D01*
X140553000Y-96188113D02*
X145705000Y-96188113D01*
X141034000Y-94827113D02*
X142089000Y-94827113D01*
X144169000Y-95107113D02*
X145397000Y-95107113D01*
X140747000Y-95347113D02*
X142089000Y-95347113D01*
X144169000Y-95708113D02*
X145630000Y-95708113D01*
X140601000Y-95828113D02*
X142089000Y-95828113D01*
X140549000Y-96308113D02*
X145709000Y-96308113D01*
X140764000Y-95307113D02*
X142089000Y-95307113D01*
X144169000Y-94347113D02*
X144782000Y-94347113D01*
X140628000Y-95708113D02*
X142089000Y-95708113D01*
X140568000Y-96028113D02*
X142089000Y-96028113D01*
X140929000Y-94987113D02*
X142089000Y-94987113D01*
X144169000Y-94747113D02*
X145164000Y-94747113D01*
X141303000Y-94507113D02*
X142089000Y-94507113D01*
X144169000Y-95948113D02*
X145679000Y-95948113D01*
X140687000Y-95507113D02*
X142089000Y-95507113D01*
X140609000Y-95788113D02*
X142089000Y-95788113D01*
X140579000Y-95948113D02*
X142089000Y-95948113D01*
X144169000Y-94947113D02*
X145304000Y-94947113D01*
X144169000Y-95387113D02*
X145527000Y-95387113D01*
X140551000Y-96228113D02*
X145707000Y-96228113D01*
X140556000Y-96148113D02*
X145702000Y-96148113D01*
X140560000Y-96108113D02*
X142089000Y-96108113D01*
X144169000Y-95748113D02*
X145640000Y-95748113D01*
X144169000Y-94467113D02*
X144914000Y-94467113D01*
X140839000Y-95147113D02*
X142089000Y-95147113D01*
X141064000Y-94787113D02*
X142089000Y-94787113D01*
X144169000Y-95307113D02*
X145494000Y-95307113D01*
X141476000Y-94347113D02*
X142089000Y-94347113D01*
X140573000Y-95988113D02*
X142089000Y-95988113D01*
X144169000Y-94627113D02*
X145066000Y-94627113D01*
X144169000Y-95507113D02*
X145571000Y-95507113D01*
X144169000Y-94787113D02*
X145194000Y-94787113D01*
X144169000Y-95067113D02*
X145376000Y-95067113D01*
X144169000Y-94587113D02*
X145030000Y-94587113D01*
X144169000Y-95547113D02*
X145584000Y-95547113D01*
X144169000Y-95027113D02*
X145353000Y-95027113D01*
X140731000Y-95387113D02*
X142089000Y-95387113D01*
X141654000Y-99152888D02*
X141654000Y-98652888D01*
X144169000Y-94307113D02*
X144734000Y-94307113D01*
X142324000Y-93867113D02*
X143934000Y-93867113D01*
X141878000Y-94067113D02*
X142089000Y-94067113D01*
X144169000Y-95467113D02*
X145557000Y-95467113D01*
X144169000Y-96068113D02*
X145694000Y-96068113D01*
X142845000Y-93747113D02*
X143413000Y-93747113D01*
X140701000Y-95467113D02*
X142089000Y-95467113D01*
X142118000Y-93947113D02*
X144140000Y-93947113D01*
X144169000Y-95347113D02*
X145511000Y-95347113D01*
X141125000Y-94707113D02*
X142089000Y-94707113D01*
X141629000Y-94227113D02*
X142089000Y-94227113D01*
X141951000Y-94027113D02*
X144307000Y-94027113D01*
X141007000Y-94867113D02*
X142089000Y-94867113D01*
X144169000Y-94987113D02*
X145329000Y-94987113D01*
X144169000Y-95427113D02*
X145543000Y-95427113D01*
X141404000Y-98902888D02*
X141904000Y-98902888D01*
X140781000Y-95267113D02*
X142089000Y-95267113D01*
X141158000Y-94667113D02*
X142089000Y-94667113D01*
X140638000Y-95668113D02*
X142089000Y-95668113D01*
X144169000Y-94827113D02*
X145224000Y-94827113D01*
X144169000Y-96028113D02*
X145690000Y-96028113D01*
X144169000Y-95147113D02*
X145419000Y-95147113D01*
X140861000Y-95107113D02*
X142089000Y-95107113D01*
X141575000Y-94267113D02*
X142089000Y-94267113D01*
X140819000Y-95187113D02*
X142089000Y-95187113D01*
X144169000Y-94267113D02*
X144683000Y-94267113D01*
X142214000Y-93907113D02*
X144044000Y-93907113D01*
X144169000Y-94667113D02*
X145100000Y-94667113D01*
X140564000Y-96068113D02*
X142089000Y-96068113D01*
X144169000Y-94227113D02*
X144629000Y-94227113D01*
X141228000Y-94587113D02*
X142089000Y-94587113D01*
X144169000Y-95908113D02*
X145672000Y-95908113D01*
X141524000Y-94307113D02*
X142089000Y-94307113D01*
X140661000Y-95587113D02*
X142089000Y-95587113D01*
X144169000Y-94387113D02*
X144828000Y-94387113D01*
X141265000Y-94547113D02*
X142089000Y-94547113D01*
X145749000Y-96348113D02*
G75*
G03*
X145749000Y-96348113I-2620000J0D01*
G01*
%TO.C,C8*%
X148988113Y-122912000D02*
X148988113Y-121604000D01*
X148108113Y-125651000D02*
X148108113Y-124992000D01*
X147828113Y-125271000D02*
X147828113Y-124992000D01*
X147868113Y-125335000D02*
X147868113Y-124992000D01*
X149589113Y-122912000D02*
X149589113Y-121416000D01*
X148788113Y-126199000D02*
X148788113Y-124992000D01*
X150069113Y-126532000D02*
X150069113Y-121372000D01*
X148908113Y-122912000D02*
X148908113Y-121642000D01*
X148228113Y-122912000D02*
X148228113Y-122126000D01*
X148628113Y-122912000D02*
X148628113Y-121803000D01*
X149348113Y-122912000D02*
X149348113Y-121472000D01*
X148588113Y-122912000D02*
X148588113Y-121830000D01*
X147908113Y-125395000D02*
X147908113Y-124992000D01*
X149989113Y-126531000D02*
X149989113Y-121373000D01*
X148468113Y-125987000D02*
X148468113Y-124992000D01*
X147508113Y-124470000D02*
X147508113Y-123434000D01*
X149268113Y-126407000D02*
X149268113Y-124992000D01*
X148748113Y-126176000D02*
X148748113Y-124992000D01*
X148948113Y-122912000D02*
X148948113Y-121623000D01*
X148148113Y-122912000D02*
X148148113Y-122209000D01*
X148428113Y-122912000D02*
X148428113Y-121948000D01*
X147828113Y-122912000D02*
X147828113Y-122633000D01*
X147788113Y-122912000D02*
X147788113Y-122701000D01*
X148268113Y-122912000D02*
X148268113Y-122088000D01*
X149509113Y-122912000D02*
X149509113Y-121432000D01*
X149589113Y-126488000D02*
X149589113Y-124992000D01*
X149348113Y-126432000D02*
X149348113Y-124992000D01*
X149148113Y-126366000D02*
X149148113Y-124992000D01*
X149389113Y-122912000D02*
X149389113Y-121461000D01*
X147548113Y-124629000D02*
X147548113Y-123275000D01*
X148668113Y-126127000D02*
X148668113Y-124992000D01*
X149308113Y-122912000D02*
X149308113Y-121484000D01*
X148188113Y-125737000D02*
X148188113Y-124992000D01*
X147908113Y-122912000D02*
X147908113Y-122509000D01*
X148348113Y-125889000D02*
X148348113Y-124992000D01*
X148628113Y-126101000D02*
X148628113Y-124992000D01*
X148948113Y-126281000D02*
X148948113Y-124992000D01*
X149709113Y-122912000D02*
X149709113Y-121396000D01*
X147868113Y-122912000D02*
X147868113Y-122569000D01*
X149469113Y-126463000D02*
X149469113Y-124992000D01*
X147708113Y-125050000D02*
X147708113Y-122854000D01*
X148148113Y-125695000D02*
X148148113Y-124992000D01*
X149829113Y-122912000D02*
X149829113Y-121383000D01*
X149549113Y-122912000D02*
X149549113Y-121424000D01*
X149629113Y-126495000D02*
X149629113Y-124992000D01*
X149909113Y-126528000D02*
X149909113Y-121376000D01*
X148548113Y-126047000D02*
X148548113Y-124992000D01*
X148828113Y-122912000D02*
X148828113Y-121684000D01*
X149068113Y-126334000D02*
X149068113Y-124992000D01*
X149429113Y-122912000D02*
X149429113Y-121451000D01*
X149549113Y-126480000D02*
X149549113Y-124992000D01*
X150029113Y-126532000D02*
X150029113Y-121372000D01*
X149028113Y-126317000D02*
X149028113Y-124992000D01*
X148068113Y-122912000D02*
X148068113Y-122299000D01*
X149429113Y-126453000D02*
X149429113Y-124992000D01*
X149749113Y-126513000D02*
X149749113Y-124992000D01*
X148708113Y-126152000D02*
X148708113Y-124992000D01*
X148468113Y-122912000D02*
X148468113Y-121917000D01*
X148228113Y-125778000D02*
X148228113Y-124992000D01*
X149669113Y-122912000D02*
X149669113Y-121402000D01*
X149228113Y-126394000D02*
X149228113Y-124992000D01*
X149509113Y-126472000D02*
X149509113Y-124992000D01*
X149669113Y-126502000D02*
X149669113Y-124992000D01*
X148668113Y-122912000D02*
X148668113Y-121777000D01*
X149108113Y-122912000D02*
X149108113Y-121554000D01*
X149949113Y-126530000D02*
X149949113Y-121374000D01*
X149869113Y-126525000D02*
X149869113Y-121379000D01*
X149829113Y-126521000D02*
X149829113Y-124992000D01*
X149469113Y-122912000D02*
X149469113Y-121441000D01*
X148188113Y-122912000D02*
X148188113Y-122167000D01*
X148868113Y-126242000D02*
X148868113Y-124992000D01*
X148508113Y-126017000D02*
X148508113Y-124992000D01*
X149028113Y-122912000D02*
X149028113Y-121587000D01*
X148068113Y-125605000D02*
X148068113Y-124992000D01*
X149709113Y-126508000D02*
X149709113Y-124992000D01*
X148348113Y-122912000D02*
X148348113Y-122015000D01*
X149228113Y-122912000D02*
X149228113Y-121510000D01*
X148508113Y-122912000D02*
X148508113Y-121887000D01*
X148788113Y-122912000D02*
X148788113Y-121705000D01*
X148308113Y-122912000D02*
X148308113Y-122051000D01*
X149268113Y-122912000D02*
X149268113Y-121497000D01*
X148748113Y-122912000D02*
X148748113Y-121728000D01*
X149108113Y-126350000D02*
X149108113Y-124992000D01*
X152873888Y-125427000D02*
X152373888Y-125427000D01*
X148028113Y-122912000D02*
X148028113Y-122347000D01*
X147588113Y-124757000D02*
X147588113Y-123147000D01*
X147788113Y-125203000D02*
X147788113Y-124992000D01*
X149188113Y-122912000D02*
X149188113Y-121524000D01*
X149789113Y-122912000D02*
X149789113Y-121387000D01*
X147468113Y-124236000D02*
X147468113Y-123668000D01*
X149188113Y-126380000D02*
X149188113Y-124992000D01*
X147668113Y-124963000D02*
X147668113Y-122941000D01*
X149068113Y-122912000D02*
X149068113Y-121570000D01*
X148428113Y-125956000D02*
X148428113Y-124992000D01*
X147948113Y-125452000D02*
X147948113Y-124992000D01*
X147748113Y-125130000D02*
X147748113Y-122774000D01*
X148588113Y-126074000D02*
X148588113Y-124992000D01*
X148708113Y-122912000D02*
X148708113Y-121752000D01*
X149148113Y-122912000D02*
X149148113Y-121538000D01*
X152623888Y-125677000D02*
X152623888Y-125177000D01*
X148988113Y-126300000D02*
X148988113Y-124992000D01*
X148388113Y-125923000D02*
X148388113Y-124992000D01*
X149389113Y-126443000D02*
X149389113Y-124992000D01*
X148548113Y-122912000D02*
X148548113Y-121857000D01*
X149749113Y-122912000D02*
X149749113Y-121391000D01*
X148868113Y-122912000D02*
X148868113Y-121662000D01*
X148828113Y-126220000D02*
X148828113Y-124992000D01*
X147988113Y-125506000D02*
X147988113Y-124992000D01*
X148908113Y-126262000D02*
X148908113Y-124992000D01*
X147988113Y-122912000D02*
X147988113Y-122398000D01*
X147628113Y-124867000D02*
X147628113Y-123037000D01*
X148388113Y-122912000D02*
X148388113Y-121981000D01*
X149789113Y-126517000D02*
X149789113Y-124992000D01*
X147948113Y-122912000D02*
X147948113Y-122452000D01*
X148308113Y-125853000D02*
X148308113Y-124992000D01*
X149629113Y-122912000D02*
X149629113Y-121409000D01*
X148028113Y-125557000D02*
X148028113Y-124992000D01*
X149308113Y-126420000D02*
X149308113Y-124992000D01*
X148108113Y-122912000D02*
X148108113Y-122253000D01*
X148268113Y-125816000D02*
X148268113Y-124992000D01*
X152689113Y-123952000D02*
G75*
G03*
X152689113Y-123952000I-2620000J0D01*
G01*
%TO.C,C7*%
X145016888Y-124992000D02*
X145016888Y-126300000D01*
X145896888Y-122253000D02*
X145896888Y-122912000D01*
X146176888Y-122633000D02*
X146176888Y-122912000D01*
X146136888Y-122569000D02*
X146136888Y-122912000D01*
X144415888Y-124992000D02*
X144415888Y-126488000D01*
X145216888Y-121705000D02*
X145216888Y-122912000D01*
X143935888Y-121372000D02*
X143935888Y-126532000D01*
X145096888Y-124992000D02*
X145096888Y-126262000D01*
X145776888Y-124992000D02*
X145776888Y-125778000D01*
X145376888Y-124992000D02*
X145376888Y-126101000D01*
X144656888Y-124992000D02*
X144656888Y-126432000D01*
X145416888Y-124992000D02*
X145416888Y-126074000D01*
X146096888Y-122509000D02*
X146096888Y-122912000D01*
X144015888Y-121373000D02*
X144015888Y-126531000D01*
X145536888Y-121917000D02*
X145536888Y-122912000D01*
X146496888Y-123434000D02*
X146496888Y-124470000D01*
X144736888Y-121497000D02*
X144736888Y-122912000D01*
X145256888Y-121728000D02*
X145256888Y-122912000D01*
X145056888Y-124992000D02*
X145056888Y-126281000D01*
X145856888Y-124992000D02*
X145856888Y-125695000D01*
X145576888Y-124992000D02*
X145576888Y-125956000D01*
X146176888Y-124992000D02*
X146176888Y-125271000D01*
X146216888Y-124992000D02*
X146216888Y-125203000D01*
X145736888Y-124992000D02*
X145736888Y-125816000D01*
X144495888Y-124992000D02*
X144495888Y-126472000D01*
X144415888Y-121416000D02*
X144415888Y-122912000D01*
X144656888Y-121472000D02*
X144656888Y-122912000D01*
X144856888Y-121538000D02*
X144856888Y-122912000D01*
X144615888Y-124992000D02*
X144615888Y-126443000D01*
X146456888Y-123275000D02*
X146456888Y-124629000D01*
X145336888Y-121777000D02*
X145336888Y-122912000D01*
X144696888Y-124992000D02*
X144696888Y-126420000D01*
X145816888Y-122167000D02*
X145816888Y-122912000D01*
X146096888Y-124992000D02*
X146096888Y-125395000D01*
X145656888Y-122015000D02*
X145656888Y-122912000D01*
X145376888Y-121803000D02*
X145376888Y-122912000D01*
X145056888Y-121623000D02*
X145056888Y-122912000D01*
X144295888Y-124992000D02*
X144295888Y-126508000D01*
X146136888Y-124992000D02*
X146136888Y-125335000D01*
X144535888Y-121441000D02*
X144535888Y-122912000D01*
X146296888Y-122854000D02*
X146296888Y-125050000D01*
X145856888Y-122209000D02*
X145856888Y-122912000D01*
X144175888Y-124992000D02*
X144175888Y-126521000D01*
X144455888Y-124992000D02*
X144455888Y-126480000D01*
X144375888Y-121409000D02*
X144375888Y-122912000D01*
X144095888Y-121376000D02*
X144095888Y-126528000D01*
X145456888Y-121857000D02*
X145456888Y-122912000D01*
X145176888Y-124992000D02*
X145176888Y-126220000D01*
X144936888Y-121570000D02*
X144936888Y-122912000D01*
X144575888Y-124992000D02*
X144575888Y-126453000D01*
X144455888Y-121424000D02*
X144455888Y-122912000D01*
X143975888Y-121372000D02*
X143975888Y-126532000D01*
X144976888Y-121587000D02*
X144976888Y-122912000D01*
X145936888Y-124992000D02*
X145936888Y-125605000D01*
X144575888Y-121451000D02*
X144575888Y-122912000D01*
X144255888Y-121391000D02*
X144255888Y-122912000D01*
X145296888Y-121752000D02*
X145296888Y-122912000D01*
X145536888Y-124992000D02*
X145536888Y-125987000D01*
X145776888Y-122126000D02*
X145776888Y-122912000D01*
X144335888Y-124992000D02*
X144335888Y-126502000D01*
X144776888Y-121510000D02*
X144776888Y-122912000D01*
X144495888Y-121432000D02*
X144495888Y-122912000D01*
X144335888Y-121402000D02*
X144335888Y-122912000D01*
X145336888Y-124992000D02*
X145336888Y-126127000D01*
X144896888Y-124992000D02*
X144896888Y-126350000D01*
X144055888Y-121374000D02*
X144055888Y-126530000D01*
X144135888Y-121379000D02*
X144135888Y-126525000D01*
X144175888Y-121383000D02*
X144175888Y-122912000D01*
X144535888Y-124992000D02*
X144535888Y-126463000D01*
X145816888Y-124992000D02*
X145816888Y-125737000D01*
X145136888Y-121662000D02*
X145136888Y-122912000D01*
X145496888Y-121887000D02*
X145496888Y-122912000D01*
X144976888Y-124992000D02*
X144976888Y-126317000D01*
X145936888Y-122299000D02*
X145936888Y-122912000D01*
X144295888Y-121396000D02*
X144295888Y-122912000D01*
X145656888Y-124992000D02*
X145656888Y-125889000D01*
X144776888Y-124992000D02*
X144776888Y-126394000D01*
X145496888Y-124992000D02*
X145496888Y-126017000D01*
X145216888Y-124992000D02*
X145216888Y-126199000D01*
X145696888Y-124992000D02*
X145696888Y-125853000D01*
X144736888Y-124992000D02*
X144736888Y-126407000D01*
X145256888Y-124992000D02*
X145256888Y-126176000D01*
X144896888Y-121554000D02*
X144896888Y-122912000D01*
X141131113Y-122477000D02*
X141631113Y-122477000D01*
X145976888Y-124992000D02*
X145976888Y-125557000D01*
X146416888Y-123147000D02*
X146416888Y-124757000D01*
X146216888Y-122701000D02*
X146216888Y-122912000D01*
X144816888Y-124992000D02*
X144816888Y-126380000D01*
X144215888Y-124992000D02*
X144215888Y-126517000D01*
X146536888Y-123668000D02*
X146536888Y-124236000D01*
X144816888Y-121524000D02*
X144816888Y-122912000D01*
X146336888Y-122941000D02*
X146336888Y-124963000D01*
X144936888Y-124992000D02*
X144936888Y-126334000D01*
X145576888Y-121948000D02*
X145576888Y-122912000D01*
X146056888Y-122452000D02*
X146056888Y-122912000D01*
X146256888Y-122774000D02*
X146256888Y-125130000D01*
X145416888Y-121830000D02*
X145416888Y-122912000D01*
X145296888Y-124992000D02*
X145296888Y-126152000D01*
X144856888Y-124992000D02*
X144856888Y-126366000D01*
X141381113Y-122227000D02*
X141381113Y-122727000D01*
X145016888Y-121604000D02*
X145016888Y-122912000D01*
X145616888Y-121981000D02*
X145616888Y-122912000D01*
X144615888Y-121461000D02*
X144615888Y-122912000D01*
X145456888Y-124992000D02*
X145456888Y-126047000D01*
X144255888Y-124992000D02*
X144255888Y-126513000D01*
X145136888Y-124992000D02*
X145136888Y-126242000D01*
X145176888Y-121684000D02*
X145176888Y-122912000D01*
X146016888Y-122398000D02*
X146016888Y-122912000D01*
X145096888Y-121642000D02*
X145096888Y-122912000D01*
X146016888Y-124992000D02*
X146016888Y-125506000D01*
X146376888Y-123037000D02*
X146376888Y-124867000D01*
X145616888Y-124992000D02*
X145616888Y-125923000D01*
X144215888Y-121387000D02*
X144215888Y-122912000D01*
X146056888Y-124992000D02*
X146056888Y-125452000D01*
X145696888Y-122051000D02*
X145696888Y-122912000D01*
X144375888Y-124992000D02*
X144375888Y-126495000D01*
X145976888Y-122347000D02*
X145976888Y-122912000D01*
X144696888Y-121484000D02*
X144696888Y-122912000D01*
X145896888Y-124992000D02*
X145896888Y-125651000D01*
X145736888Y-122088000D02*
X145736888Y-122912000D01*
X146555888Y-123952000D02*
G75*
G03*
X146555888Y-123952000I-2620000J0D01*
G01*
%TO.C,C6*%
X91160000Y-101593631D02*
X91710000Y-101593631D01*
X91435000Y-101868631D02*
X91435000Y-101318631D01*
X95920000Y-98796369D02*
G75*
G03*
X95920000Y-98796369I-2870000J0D01*
G01*
%TO.C,C5*%
X91210000Y-95233631D02*
X91760000Y-95233631D01*
X91485000Y-95508631D02*
X91485000Y-94958631D01*
X95970000Y-92436369D02*
G75*
G03*
X95970000Y-92436369I-2870000J0D01*
G01*
%TO.C,C4*%
X94850000Y-102326369D02*
X94300000Y-102326369D01*
X94575000Y-102051369D02*
X94575000Y-102601369D01*
X95830000Y-105123631D02*
G75*
G03*
X95830000Y-105123631I-2870000J0D01*
G01*
%TO.C,C3*%
X94890000Y-108876369D02*
X94340000Y-108876369D01*
X94615000Y-108601369D02*
X94615000Y-109151369D01*
X95870000Y-111673631D02*
G75*
G03*
X95870000Y-111673631I-2870000J0D01*
G01*
%TO.C,C2*%
X105166369Y-128860000D02*
X105166369Y-129410000D01*
X104891369Y-129135000D02*
X105441369Y-129135000D01*
X110833631Y-130750000D02*
G75*
G03*
X110833631Y-130750000I-2870000J0D01*
G01*
%TO.C,C1*%
X100500000Y-136886369D02*
X99950000Y-136886369D01*
X100225000Y-136611369D02*
X100225000Y-137161369D01*
X101480000Y-139683631D02*
G75*
G03*
X101480000Y-139683631I-2870000J0D01*
G01*
%TO.C,R8*%
X124460000Y-138200000D02*
X124460000Y-138970000D01*
X123090000Y-138970000D02*
X123090000Y-145510000D01*
X123090000Y-145510000D02*
X125830000Y-145510000D01*
X124460000Y-146280000D02*
X124460000Y-145510000D01*
X125830000Y-138970000D02*
X123090000Y-138970000D01*
X125830000Y-145510000D02*
X125830000Y-138970000D01*
%TO.C,R24*%
X167640000Y-118340000D02*
X167640000Y-117570000D01*
X166270000Y-111030000D02*
X166270000Y-117570000D01*
X169010000Y-111030000D02*
X166270000Y-111030000D01*
X166270000Y-117570000D02*
X169010000Y-117570000D01*
X167640000Y-110260000D02*
X167640000Y-111030000D01*
X169010000Y-117570000D02*
X169010000Y-111030000D01*
%TO.C,R4*%
X124460000Y-132310000D02*
X124460000Y-131540000D01*
X124460000Y-124230000D02*
X124460000Y-125000000D01*
X125830000Y-131540000D02*
X125830000Y-125000000D01*
X123090000Y-125000000D02*
X123090000Y-131540000D01*
X125830000Y-125000000D02*
X123090000Y-125000000D01*
X123090000Y-131540000D02*
X125830000Y-131540000D01*
%TO.C,R14*%
X133250000Y-93250000D02*
X133250000Y-99790000D01*
X134620000Y-100560000D02*
X134620000Y-99790000D01*
X135990000Y-93250000D02*
X133250000Y-93250000D01*
X133250000Y-99790000D02*
X135990000Y-99790000D01*
X135990000Y-99790000D02*
X135990000Y-93250000D01*
X134620000Y-92480000D02*
X134620000Y-93250000D01*
%TO.C,R6*%
X158850000Y-126270000D02*
X156110000Y-126270000D01*
X157480000Y-125500000D02*
X157480000Y-126270000D01*
X156110000Y-126270000D02*
X156110000Y-132810000D01*
X157480000Y-133580000D02*
X157480000Y-132810000D01*
X156110000Y-132810000D02*
X158850000Y-132810000D01*
X158850000Y-132810000D02*
X158850000Y-126270000D01*
%TO.C,R11*%
X153570000Y-95790000D02*
X153570000Y-102330000D01*
X153570000Y-102330000D02*
X156310000Y-102330000D01*
X154940000Y-95020000D02*
X154940000Y-95790000D01*
X156310000Y-95790000D02*
X153570000Y-95790000D01*
X154940000Y-103100000D02*
X154940000Y-102330000D01*
X156310000Y-102330000D02*
X156310000Y-95790000D01*
%TO.C,U1*%
X147440000Y-146105000D02*
X147440000Y-128205000D01*
X142140000Y-128205000D02*
X142140000Y-146105000D01*
X143790000Y-128205000D02*
X142140000Y-128205000D01*
X142140000Y-146105000D02*
X147440000Y-146105000D01*
X147440000Y-128205000D02*
X145790000Y-128205000D01*
X143790000Y-128205000D02*
G75*
G03*
X145790000Y-128205000I1000000J0D01*
G01*
%TO.C,TP4*%
X80960000Y-143510000D02*
G75*
G03*
X80960000Y-143510000I-950000J0D01*
G01*
%TO.C,J1*%
X71070000Y-108510000D02*
X78790000Y-108510000D01*
X71070000Y-122630000D02*
X78790000Y-122630000D01*
X75171000Y-114965000D02*
X75299000Y-115094000D01*
X79030000Y-122870000D02*
X79030000Y-122470000D01*
X75411000Y-111295000D02*
X75504000Y-111389000D01*
X73161000Y-109045000D02*
X73289000Y-109174000D01*
X73161000Y-116045000D02*
X73289000Y-116174000D01*
X73161000Y-112545000D02*
X73289000Y-112674000D01*
X77230000Y-122630000D02*
X77230000Y-108510000D01*
X71070000Y-122630000D02*
X71070000Y-108510000D01*
X78790000Y-122630000D02*
X78790000Y-108510000D01*
X75411000Y-114795000D02*
X75504000Y-114889000D01*
X72955000Y-112750000D02*
X73049000Y-112844000D01*
X75411000Y-118295000D02*
X75504000Y-118389000D01*
X78390000Y-122870000D02*
X79030000Y-122870000D01*
X78330000Y-122630000D02*
X78330000Y-108510000D01*
X72955000Y-109250000D02*
X73049000Y-109344000D01*
X72955000Y-116250000D02*
X73049000Y-116344000D01*
X75171000Y-111465000D02*
X75299000Y-111594000D01*
X75171000Y-118465000D02*
X75299000Y-118594000D01*
X75910000Y-120820000D02*
G75*
G03*
X75654721Y-119929736I-1679990J3D01*
G01*
X75121000Y-119395000D02*
G75*
G03*
X73339807Y-119394496I-891000J-1425003D01*
G01*
X75670000Y-121686000D02*
G75*
G03*
X75910099Y-120791326I-1440014J866003D01*
G01*
X72789999Y-119954000D02*
G75*
G03*
X72804642Y-121709894I1439999J-866000D01*
G01*
X73364000Y-122260001D02*
G75*
G03*
X75119894Y-122245358I866000J1439999D01*
G01*
X75910000Y-117320000D02*
G75*
G03*
X75910000Y-117320000I-1680000J0D01*
G01*
X75910000Y-113820000D02*
G75*
G03*
X75910000Y-113820000I-1680000J0D01*
G01*
X75910000Y-110320000D02*
G75*
G03*
X75910000Y-110320000I-1680000J0D01*
G01*
%TO.C,R16*%
X124460000Y-115800000D02*
X124460000Y-115030000D01*
X125830000Y-108490000D02*
X123090000Y-108490000D01*
X124460000Y-107720000D02*
X124460000Y-108490000D01*
X123090000Y-115030000D02*
X125830000Y-115030000D01*
X125830000Y-115030000D02*
X125830000Y-108490000D01*
X123090000Y-108490000D02*
X123090000Y-115030000D01*
%TO.C,R23*%
X163930000Y-117570000D02*
X163930000Y-111030000D01*
X161190000Y-117570000D02*
X163930000Y-117570000D01*
X161190000Y-111030000D02*
X161190000Y-117570000D01*
X162560000Y-118340000D02*
X162560000Y-117570000D01*
X162560000Y-110260000D02*
X162560000Y-111030000D01*
X163930000Y-111030000D02*
X161190000Y-111030000D01*
%TO.C,R15*%
X157480000Y-110260000D02*
X157480000Y-111030000D01*
X156110000Y-117570000D02*
X158850000Y-117570000D01*
X156110000Y-111030000D02*
X156110000Y-117570000D01*
X157480000Y-118340000D02*
X157480000Y-117570000D01*
X158850000Y-111030000D02*
X156110000Y-111030000D01*
X158850000Y-117570000D02*
X158850000Y-111030000D01*
%TO.C,R10*%
X161390000Y-102330000D02*
X161390000Y-95790000D01*
X160020000Y-103100000D02*
X160020000Y-102330000D01*
X158650000Y-95790000D02*
X158650000Y-102330000D01*
X160020000Y-95020000D02*
X160020000Y-95790000D01*
X161390000Y-95790000D02*
X158650000Y-95790000D01*
X158650000Y-102330000D02*
X161390000Y-102330000D01*
%TO.C,R17*%
X128170000Y-93250000D02*
X128170000Y-99790000D01*
X129540000Y-92480000D02*
X129540000Y-93250000D01*
X128170000Y-99790000D02*
X130910000Y-99790000D01*
X130910000Y-93250000D02*
X128170000Y-93250000D01*
X129540000Y-100560000D02*
X129540000Y-99790000D01*
X130910000Y-99790000D02*
X130910000Y-93250000D01*
%TO.C,R1*%
X167640000Y-133580000D02*
X167640000Y-132810000D01*
X167640000Y-125500000D02*
X167640000Y-126270000D01*
X169010000Y-132810000D02*
X169010000Y-126270000D01*
X169010000Y-126270000D02*
X166270000Y-126270000D01*
X166270000Y-132810000D02*
X169010000Y-132810000D01*
X166270000Y-126270000D02*
X166270000Y-132810000D01*
%TO.C,J3*%
X79960000Y-92000000D02*
X87680000Y-92000000D01*
X87280000Y-106360000D02*
X87920000Y-106360000D01*
X84301000Y-94785000D02*
X84394000Y-94879000D01*
X81845000Y-99740000D02*
X81939000Y-99834000D01*
X87920000Y-106360000D02*
X87920000Y-105960000D01*
X81845000Y-96240000D02*
X81939000Y-96334000D01*
X82051000Y-92535000D02*
X82179000Y-92664000D01*
X82051000Y-99535000D02*
X82179000Y-99664000D01*
X82051000Y-96035000D02*
X82179000Y-96164000D01*
X79960000Y-106120000D02*
X79960000Y-92000000D01*
X87680000Y-106120000D02*
X87680000Y-92000000D01*
X84061000Y-101955000D02*
X84189000Y-102084000D01*
X87220000Y-106120000D02*
X87220000Y-92000000D01*
X84301000Y-98285000D02*
X84394000Y-98379000D01*
X84061000Y-94955000D02*
X84189000Y-95084000D01*
X84301000Y-101785000D02*
X84394000Y-101879000D01*
X81845000Y-92740000D02*
X81939000Y-92834000D01*
X84061000Y-98455000D02*
X84189000Y-98584000D01*
X86120000Y-106120000D02*
X86120000Y-92000000D01*
X79960000Y-106120000D02*
X87680000Y-106120000D01*
X84011000Y-102885000D02*
G75*
G03*
X82229807Y-102884496I-891000J-1425003D01*
G01*
X84560000Y-105176000D02*
G75*
G03*
X84800099Y-104281326I-1440014J866003D01*
G01*
X82254000Y-105750001D02*
G75*
G03*
X84009894Y-105735358I866000J1439999D01*
G01*
X81679999Y-103444000D02*
G75*
G03*
X81694642Y-105199894I1439999J-866000D01*
G01*
X84800000Y-104310000D02*
G75*
G03*
X84544721Y-103419736I-1679990J3D01*
G01*
X84800000Y-97310000D02*
G75*
G03*
X84800000Y-97310000I-1680000J0D01*
G01*
X84800000Y-100810000D02*
G75*
G03*
X84800000Y-100810000I-1680000J0D01*
G01*
X84800000Y-93810000D02*
G75*
G03*
X84800000Y-93810000I-1680000J0D01*
G01*
D12*
%TO.C,U3*%
X105950000Y-135120000D02*
X105950000Y-134620000D01*
X107410000Y-135120000D02*
X105950000Y-135120000D01*
X104125000Y-134620000D02*
X104125000Y-144780000D01*
X105950000Y-134620000D02*
X104125000Y-134620000D01*
X107410000Y-134620000D02*
X107410000Y-135120000D01*
X109235000Y-144780000D02*
X109235000Y-134620000D01*
X109235000Y-134620000D02*
X107410000Y-134620000D01*
X104125000Y-144780000D02*
X109235000Y-144780000D01*
D14*
X101495000Y-135940000D02*
G75*
G03*
X101495000Y-135940000I-125000J0D01*
G01*
D13*
%TO.C,R12*%
X128170000Y-115030000D02*
X130910000Y-115030000D01*
X130910000Y-108490000D02*
X128170000Y-108490000D01*
X130910000Y-115030000D02*
X130910000Y-108490000D01*
X129540000Y-115800000D02*
X129540000Y-115030000D01*
X129540000Y-107720000D02*
X129540000Y-108490000D01*
X128170000Y-108490000D02*
X128170000Y-115030000D01*
%TO.C,R22*%
X112490000Y-105510000D02*
X112490000Y-102770000D01*
X113260000Y-104140000D02*
X112490000Y-104140000D01*
X112490000Y-102770000D02*
X105950000Y-102770000D01*
X105950000Y-105510000D02*
X112490000Y-105510000D01*
X105180000Y-104140000D02*
X105950000Y-104140000D01*
X105950000Y-102770000D02*
X105950000Y-105510000D01*
%TO.C,R5*%
X130910000Y-131540000D02*
X130910000Y-125000000D01*
X129540000Y-124230000D02*
X129540000Y-125000000D01*
X128170000Y-125000000D02*
X128170000Y-131540000D01*
X130910000Y-125000000D02*
X128170000Y-125000000D01*
X128170000Y-131540000D02*
X130910000Y-131540000D01*
X129540000Y-132310000D02*
X129540000Y-131540000D01*
%TO.C,TP8*%
X100010000Y-109220000D02*
G75*
G03*
X100010000Y-109220000I-950000J0D01*
G01*
%TO.C,R26*%
X156310000Y-140240000D02*
X153570000Y-140240000D01*
X156310000Y-146780000D02*
X156310000Y-140240000D01*
X154940000Y-147550000D02*
X154940000Y-146780000D01*
X153570000Y-140240000D02*
X153570000Y-146780000D01*
X153570000Y-146780000D02*
X156310000Y-146780000D01*
X154940000Y-139470000D02*
X154940000Y-140240000D01*
%TO.C,TP5*%
X100010000Y-93980000D02*
G75*
G03*
X100010000Y-93980000I-950000J0D01*
G01*
%TO.C,TP3*%
X96073000Y-117348000D02*
G75*
G03*
X96073000Y-117348000I-950000J0D01*
G01*
%TO.C,TP1*%
X84770000Y-128270000D02*
G75*
G03*
X84770000Y-128270000I-950000J0D01*
G01*
%TO.C,TP9*%
X116520000Y-146050000D02*
G75*
G03*
X116520000Y-146050000I-950000J0D01*
G01*
%TO.C,U2*%
X147440000Y-100265000D02*
X145790000Y-100265000D01*
X147440000Y-118165000D02*
X147440000Y-100265000D01*
X142140000Y-118165000D02*
X147440000Y-118165000D01*
X142140000Y-100265000D02*
X142140000Y-118165000D01*
X143790000Y-100265000D02*
X142140000Y-100265000D01*
X143790000Y-100265000D02*
G75*
G03*
X145790000Y-100265000I1000000J0D01*
G01*
%TO.C,TP2*%
X97470000Y-125730000D02*
G75*
G03*
X97470000Y-125730000I-950000J0D01*
G01*
%TO.C,TP7*%
X100010000Y-104140000D02*
G75*
G03*
X100010000Y-104140000I-950000J0D01*
G01*
%TO.C,R3*%
X129540000Y-146280000D02*
X129540000Y-145510000D01*
X128170000Y-138970000D02*
X128170000Y-145510000D01*
X130910000Y-145510000D02*
X130910000Y-138970000D01*
X130910000Y-138970000D02*
X128170000Y-138970000D01*
X128170000Y-145510000D02*
X130910000Y-145510000D01*
X129540000Y-138200000D02*
X129540000Y-138970000D01*
%TO.C,J2*%
X72955000Y-131642400D02*
X73049000Y-131736400D01*
X73161000Y-124437400D02*
X73289000Y-124566400D01*
X75171000Y-126857400D02*
X75299000Y-126986400D01*
X71070000Y-123902400D02*
X78790000Y-123902400D01*
X71070000Y-138022400D02*
X78790000Y-138022400D01*
X72955000Y-124642400D02*
X73049000Y-124736400D01*
X72955000Y-128142400D02*
X73049000Y-128236400D01*
X78790000Y-138022400D02*
X78790000Y-123902400D01*
X78330000Y-138022400D02*
X78330000Y-123902400D01*
X78390000Y-138262400D02*
X79030000Y-138262400D01*
X73161000Y-131437400D02*
X73289000Y-131566400D01*
X75171000Y-130357400D02*
X75299000Y-130486400D01*
X77230000Y-138022400D02*
X77230000Y-123902400D01*
X75171000Y-133857400D02*
X75299000Y-133986400D01*
X75411000Y-126687400D02*
X75504000Y-126781400D01*
X75411000Y-133687400D02*
X75504000Y-133781400D01*
X75411000Y-130187400D02*
X75504000Y-130281400D01*
X79030000Y-138262400D02*
X79030000Y-137862400D01*
X71070000Y-138022400D02*
X71070000Y-123902400D01*
X73161000Y-127937400D02*
X73289000Y-128066400D01*
X72789999Y-135346400D02*
G75*
G03*
X72804642Y-137102294I1439999J-866000D01*
G01*
X75121000Y-134787400D02*
G75*
G03*
X73339807Y-134786896I-891000J-1425003D01*
G01*
X75910000Y-136212400D02*
G75*
G03*
X75654721Y-135322136I-1679990J3D01*
G01*
X73364000Y-137652401D02*
G75*
G03*
X75119894Y-137637758I866000J1439999D01*
G01*
X75670000Y-137078400D02*
G75*
G03*
X75910099Y-136183726I-1440014J866003D01*
G01*
X75910000Y-125712400D02*
G75*
G03*
X75910000Y-125712400I-1680000J0D01*
G01*
X75910000Y-132712400D02*
G75*
G03*
X75910000Y-132712400I-1680000J0D01*
G01*
X75910000Y-129212400D02*
G75*
G03*
X75910000Y-129212400I-1680000J0D01*
G01*
%TO.C,TP12*%
X100010000Y-146050000D02*
G75*
G03*
X100010000Y-146050000I-950000J0D01*
G01*
%TO.C,J4*%
X88945000Y-145859000D02*
X89074000Y-145731000D01*
X93110000Y-143800000D02*
X85990000Y-143800000D01*
X85990000Y-149960000D02*
X85990000Y-142240000D01*
X93350000Y-142640000D02*
X93350000Y-142000000D01*
X93110000Y-142240000D02*
X85990000Y-142240000D01*
X93110000Y-149960000D02*
X93110000Y-142240000D01*
X93350000Y-142000000D02*
X92950000Y-142000000D01*
X88775000Y-145619000D02*
X88869000Y-145526000D01*
X93110000Y-142700000D02*
X85990000Y-142700000D01*
X86730000Y-148075000D02*
X86824000Y-147981000D01*
X93110000Y-149960000D02*
X85990000Y-149960000D01*
X86525000Y-147869000D02*
X86654000Y-147741000D01*
X92740001Y-147666000D02*
G75*
G03*
X92725358Y-145910106I-1439999J866000D01*
G01*
X91300000Y-145120000D02*
G75*
G03*
X90409736Y-145375279I-3J-1679990D01*
G01*
X92166000Y-145360000D02*
G75*
G03*
X91271326Y-145119901I-866003J-1440014D01*
G01*
X90434000Y-148240001D02*
G75*
G03*
X92189894Y-148225358I866000J1439999D01*
G01*
X89875000Y-145909000D02*
G75*
G03*
X89874496Y-147690193I1425003J-891000D01*
G01*
X89480000Y-146800000D02*
G75*
G03*
X89480000Y-146800000I-1680000J0D01*
G01*
%TO.C,R20*%
X89152400Y-127540000D02*
X86412400Y-127540000D01*
X86412400Y-127540000D02*
X86412400Y-134080000D01*
X86412400Y-134080000D02*
X89152400Y-134080000D01*
X87782400Y-134850000D02*
X87782400Y-134080000D01*
X87782400Y-126770000D02*
X87782400Y-127540000D01*
X89152400Y-134080000D02*
X89152400Y-127540000D01*
%TO.C,R7*%
X105950000Y-95350000D02*
X112490000Y-95350000D01*
X113260000Y-93980000D02*
X112490000Y-93980000D01*
X112490000Y-92610000D02*
X105950000Y-92610000D01*
X112490000Y-95350000D02*
X112490000Y-92610000D01*
X105180000Y-93980000D02*
X105950000Y-93980000D01*
X105950000Y-92610000D02*
X105950000Y-95350000D01*
%TO.C,R25*%
X158650000Y-146780000D02*
X161390000Y-146780000D01*
X158650000Y-140240000D02*
X158650000Y-146780000D01*
X161390000Y-140240000D02*
X158650000Y-140240000D01*
X161390000Y-146780000D02*
X161390000Y-140240000D01*
X160020000Y-139470000D02*
X160020000Y-140240000D01*
X160020000Y-147550000D02*
X160020000Y-146780000D01*
%TO.C,R2*%
X161190000Y-132810000D02*
X163930000Y-132810000D01*
X162560000Y-133580000D02*
X162560000Y-132810000D01*
X161190000Y-126270000D02*
X161190000Y-132810000D01*
X163930000Y-132810000D02*
X163930000Y-126270000D01*
X163930000Y-126270000D02*
X161190000Y-126270000D01*
X162560000Y-125500000D02*
X162560000Y-126270000D01*
%TO.C,R21*%
X105950000Y-110590000D02*
X112490000Y-110590000D01*
X113260000Y-109220000D02*
X112490000Y-109220000D01*
X105950000Y-107850000D02*
X105950000Y-110590000D01*
X112490000Y-107850000D02*
X105950000Y-107850000D01*
X105180000Y-109220000D02*
X105950000Y-109220000D01*
X112490000Y-110590000D02*
X112490000Y-107850000D01*
%TO.C,TP11*%
X86040000Y-120825000D02*
G75*
G03*
X86040000Y-120825000I-950000J0D01*
G01*
%TO.C,R9*%
X135990000Y-138970000D02*
X133250000Y-138970000D01*
X133250000Y-138970000D02*
X133250000Y-145510000D01*
X134620000Y-146280000D02*
X134620000Y-145510000D01*
X133250000Y-145510000D02*
X135990000Y-145510000D01*
X134620000Y-138200000D02*
X134620000Y-138970000D01*
X135990000Y-145510000D02*
X135990000Y-138970000D01*
%TO.C,TP10*%
X72070000Y-105410000D02*
G75*
G03*
X72070000Y-105410000I-950000J0D01*
G01*
%TO.C,R13*%
X125830000Y-93250000D02*
X123090000Y-93250000D01*
X123090000Y-99790000D02*
X125830000Y-99790000D01*
X123090000Y-93250000D02*
X123090000Y-99790000D01*
X124460000Y-100560000D02*
X124460000Y-99790000D01*
X124460000Y-92480000D02*
X124460000Y-93250000D01*
X125830000Y-99790000D02*
X125830000Y-93250000D01*
%TO.C,R19*%
X94080000Y-136620000D02*
X94080000Y-130080000D01*
X91340000Y-130080000D02*
X91340000Y-136620000D01*
X94080000Y-130080000D02*
X91340000Y-130080000D01*
X91340000Y-136620000D02*
X94080000Y-136620000D01*
X92710000Y-137390000D02*
X92710000Y-136620000D01*
X92710000Y-129310000D02*
X92710000Y-130080000D01*
%TO.C,TP6*%
X100010000Y-99060000D02*
G75*
G03*
X100010000Y-99060000I-950000J0D01*
G01*
%TO.C,R18*%
X112490000Y-97690000D02*
X105950000Y-97690000D01*
X105950000Y-97690000D02*
X105950000Y-100430000D01*
X105180000Y-99060000D02*
X105950000Y-99060000D01*
X112490000Y-100430000D02*
X112490000Y-97690000D01*
X113260000Y-99060000D02*
X112490000Y-99060000D01*
X105950000Y-100430000D02*
X112490000Y-100430000D01*
%TD*%
M02*
