%TF.GenerationSoftware,KiCad,Pcbnew,(6.0.2)*%
%TF.CreationDate,2022-03-03T16:36:36-08:00*%
%TF.ProjectId,PAMonitorV3,50414d6f-6e69-4746-9f72-56332e6b6963,rev?*%
%TF.SameCoordinates,Original*%
%TF.FileFunction,Soldermask,Top*%
%TF.FilePolarity,Negative*%
%FSLAX46Y46*%
G04 Gerber Fmt 4.6, Leading zero omitted, Abs format (unit mm)*
G04 Created by KiCad (PCBNEW (6.0.2)) date 2022-03-03 16:36:36*
%MOMM*%
%LPD*%
G01*
G04 APERTURE LIST*
%ADD10R,1.600000X1.600000*%
%ADD11C,1.600000*%
%ADD12O,1.600000X1.600000*%
%ADD13C,3.800000*%
%ADD14C,1.500000*%
%ADD15R,2.400000X2.400000*%
%ADD16C,2.400000*%
G04 APERTURE END LIST*
D10*
%TO.C,C11*%
X89713631Y-120810000D03*
D11*
X92213631Y-120810000D03*
%TD*%
%TO.C,C10*%
X148844000Y-97560888D03*
D10*
X148844000Y-95060888D03*
%TD*%
%TO.C,C9*%
X143129000Y-97598113D03*
D11*
X143129000Y-95098113D03*
%TD*%
D10*
%TO.C,C8*%
X151319113Y-123952000D03*
D11*
X148819113Y-123952000D03*
%TD*%
D10*
%TO.C,C7*%
X142685888Y-123952000D03*
D11*
X145185888Y-123952000D03*
%TD*%
D10*
%TO.C,C6*%
X93050000Y-100046369D03*
D11*
X93050000Y-97546369D03*
%TD*%
D10*
%TO.C,C5*%
X93100000Y-93686369D03*
D11*
X93100000Y-91186369D03*
%TD*%
D10*
%TO.C,C4*%
X92960000Y-103873631D03*
D11*
X92960000Y-106373631D03*
%TD*%
D10*
%TO.C,C3*%
X93000000Y-110423631D03*
D11*
X93000000Y-112923631D03*
%TD*%
D10*
%TO.C,C2*%
X106713631Y-130750000D03*
D11*
X109213631Y-130750000D03*
%TD*%
D10*
%TO.C,C1*%
X98610000Y-138433631D03*
D11*
X98610000Y-140933631D03*
%TD*%
%TO.C,R8*%
X124460000Y-147320000D03*
D12*
X124460000Y-137160000D03*
%TD*%
D11*
%TO.C,R24*%
X167640000Y-109220000D03*
D12*
X167640000Y-119380000D03*
%TD*%
D11*
%TO.C,R4*%
X124460000Y-123190000D03*
D12*
X124460000Y-133350000D03*
%TD*%
D11*
%TO.C,R14*%
X134620000Y-101600000D03*
D12*
X134620000Y-91440000D03*
%TD*%
D11*
%TO.C,R6*%
X157480000Y-134620000D03*
D12*
X157480000Y-124460000D03*
%TD*%
D13*
%TO.C,H2*%
X166814000Y-93980000D03*
%TD*%
D11*
%TO.C,R11*%
X154940000Y-104140000D03*
D12*
X154940000Y-93980000D03*
%TD*%
D10*
%TO.C,U1*%
X140980000Y-129535000D03*
D12*
X140980000Y-132075000D03*
X140980000Y-134615000D03*
X140980000Y-137155000D03*
X140980000Y-139695000D03*
X140980000Y-142235000D03*
X140980000Y-144775000D03*
X148600000Y-144775000D03*
X148600000Y-142235000D03*
X148600000Y-139695000D03*
X148600000Y-137155000D03*
X148600000Y-134615000D03*
X148600000Y-132075000D03*
X148600000Y-129535000D03*
%TD*%
D13*
%TO.C,H3*%
X72313800Y-147320000D03*
%TD*%
D14*
%TO.C,TP4*%
X80010000Y-143510000D03*
%TD*%
D15*
%TO.C,J1*%
X74230000Y-120820000D03*
D16*
X74230000Y-117320000D03*
X74230000Y-113820000D03*
X74230000Y-110320000D03*
%TD*%
D11*
%TO.C,R16*%
X124460000Y-106680000D03*
D12*
X124460000Y-116840000D03*
%TD*%
D11*
%TO.C,R23*%
X162560000Y-119380000D03*
D12*
X162560000Y-109220000D03*
%TD*%
D11*
%TO.C,R15*%
X157480000Y-109220000D03*
D12*
X157480000Y-119380000D03*
%TD*%
D11*
%TO.C,R10*%
X160020000Y-104140000D03*
D12*
X160020000Y-93980000D03*
%TD*%
D11*
%TO.C,R17*%
X129540000Y-101600000D03*
D12*
X129540000Y-91440000D03*
%TD*%
D11*
%TO.C,R1*%
X167640000Y-134620000D03*
D12*
X167640000Y-124460000D03*
%TD*%
D15*
%TO.C,J3*%
X83120000Y-104310000D03*
D16*
X83120000Y-100810000D03*
X83120000Y-97310000D03*
X83120000Y-93810000D03*
%TD*%
D11*
%TO.C,R12*%
X129540000Y-116840000D03*
D12*
X129540000Y-106680000D03*
%TD*%
D11*
%TO.C,R22*%
X104140000Y-104140000D03*
D12*
X114300000Y-104140000D03*
%TD*%
D11*
%TO.C,R5*%
X129540000Y-133350000D03*
D12*
X129540000Y-123190000D03*
%TD*%
D14*
%TO.C,TP8*%
X99060000Y-109220000D03*
%TD*%
D11*
%TO.C,R26*%
X154940000Y-138430000D03*
D12*
X154940000Y-148590000D03*
%TD*%
D14*
%TO.C,TP5*%
X99060000Y-93980000D03*
%TD*%
%TO.C,TP3*%
X95123000Y-117348000D03*
%TD*%
%TO.C,TP1*%
X83820000Y-128270000D03*
%TD*%
%TO.C,TP9*%
X115570000Y-146050000D03*
%TD*%
D10*
%TO.C,U2*%
X140980000Y-101595000D03*
D12*
X140980000Y-104135000D03*
X140980000Y-106675000D03*
X140980000Y-109215000D03*
X140980000Y-111755000D03*
X140980000Y-114295000D03*
X140980000Y-116835000D03*
X148600000Y-116835000D03*
X148600000Y-114295000D03*
X148600000Y-111755000D03*
X148600000Y-109215000D03*
X148600000Y-106675000D03*
X148600000Y-104135000D03*
X148600000Y-101595000D03*
%TD*%
D14*
%TO.C,TP2*%
X96520000Y-125730000D03*
%TD*%
%TO.C,TP7*%
X99060000Y-104140000D03*
%TD*%
D13*
%TO.C,H4*%
X166814000Y-147320000D03*
%TD*%
D11*
%TO.C,R3*%
X129540000Y-137160000D03*
D12*
X129540000Y-147320000D03*
%TD*%
D15*
%TO.C,J2*%
X74230000Y-136212400D03*
D16*
X74230000Y-132712400D03*
X74230000Y-129212400D03*
X74230000Y-125712400D03*
%TD*%
D14*
%TO.C,TP12*%
X99060000Y-146050000D03*
%TD*%
D15*
%TO.C,J4*%
X91300000Y-146800000D03*
D16*
X87800000Y-146800000D03*
%TD*%
D11*
%TO.C,R20*%
X87782400Y-135890000D03*
D12*
X87782400Y-125730000D03*
%TD*%
D11*
%TO.C,R7*%
X114300000Y-93980000D03*
D12*
X104140000Y-93980000D03*
%TD*%
D13*
%TO.C,H1*%
X72313800Y-93980000D03*
%TD*%
D11*
%TO.C,R25*%
X160020000Y-148590000D03*
D12*
X160020000Y-138430000D03*
%TD*%
D11*
%TO.C,R2*%
X162560000Y-134620000D03*
D12*
X162560000Y-124460000D03*
%TD*%
D11*
%TO.C,R21*%
X104140000Y-109220000D03*
D12*
X114300000Y-109220000D03*
%TD*%
D14*
%TO.C,TP11*%
X85090000Y-120825000D03*
%TD*%
D11*
%TO.C,R9*%
X134620000Y-147320000D03*
D12*
X134620000Y-137160000D03*
%TD*%
D14*
%TO.C,TP10*%
X71120000Y-105410000D03*
%TD*%
D11*
%TO.C,R13*%
X124460000Y-91440000D03*
D12*
X124460000Y-101600000D03*
%TD*%
D11*
%TO.C,R19*%
X92710000Y-138430000D03*
D12*
X92710000Y-128270000D03*
%TD*%
D14*
%TO.C,TP6*%
X99060000Y-99060000D03*
%TD*%
D11*
%TO.C,R18*%
X114300000Y-99060000D03*
D12*
X104140000Y-99060000D03*
%TD*%
M02*
